<svg viewBox="0 0 513 512" xmlns="http://www.w3.org/2000/svg">
  <path fill="#f0cdc2" d="M502.496 501.98v-12.527c0-37.387-23.273-69.332-56.125-82.144h-50.594a42.017 42.017 0 01-21.691-6h-27.309c-21.27 0-38.851-15.739-41.765-36.204h-47.594c0 23.31-18.895 42.204-42.2 42.204h-67.573c-48.684 0-88.145 39.46-88.145 88.144v6.527h442.996z"/>
  <path fill="#d28369" d="M429.496 501.98l26.254-90.359-91.094-10.312-28.16 100.671z"/>
  <path fill="#fff" d="M353.434 169.547v-4.086c0-53.531-43.399-96.93-96.93-96.93-53.531 0-96.93 43.399-96.93 96.93v4.086c-13.77 0-24.933 11.16-24.933 24.933v13.676c0 13.77 11.164 24.93 24.933 24.93v16.965c0 53.836 43.645 97.48 97.485 97.48 53.226 0 96.375-43.148 96.375-96.375v-18.07c13.761 0 24.918-11.156 24.918-24.918v-13.7c.003-13.765-11.157-24.921-24.918-24.921z"/>
  <path fill="#d7d7e0" d="M208.418 359.11h96.16c0 11.967 4.99 22.765 12.993 30.443l.39.369 1.195 3.742c0 34.606-28.054 62.656-62.66 62.656-34.255 0-62.094-27.492-62.648-61.62l-.008-1.036v-1.336l.324-1.613c8.604-7.612 14.083-18.677 14.25-31.026l.004-.58h96.16-96.16zM277.172 89.2c21.492 0 41.351 7 57.422 18.84 11.688 15.863 18.66 35.42 18.836 56.595l.004.826v4.086c8.492 0 15.988 4.25 20.488 10.734.09 1.55.151 3.105.172 4.671l.008 1.177v4.082c1.34 0 2.656.11 3.941.312.17 1.071.273 2.161.303 3.273l.01.669v13.7c0 13.623-10.935 24.694-24.51 24.914l-.412.003v18.074c0 23.867-8.68 45.703-23.055 62.535l-.536-.204-.273-.096-3.164-1.036c-1.8-8.674-7.925-16.316-17.066-19.485l-.438-.147-10.734-3.512a133.872 133.872 0 00-82.456-.286l-.884.286-10.734 3.512c-7.918 2.593-13.63 8.52-16.32 15.597-4.735-11.3-7.406-23.683-7.527-36.676l-.005-.93V253.75c-8.45 0-15.917-4.2-20.429-10.634l-.239-.346v-9.684a24.83 24.83 0 01-3.949-.316 24.843 24.843 0 01-.307-3.28l-.01-.67v-13.675c0-13.632 10.942-24.71 24.522-24.93l.412-.004v-4.086c0-53.531 43.399-96.926 96.93-96.926z"/>
  <path fill="#7d5b50" d="M301.691 29.332c12.267 0 23.33 5.129 31.172 13.36l.371.394c6.923 7.456 16.131 12.43 26.235 13.455l.562.053c.367.031.735.07 1.106.11 7.699.862 14.797 3.792 20.73 8.202a42.302 42.302 0 012.606 11.211 43.72 43.72 0 01-.389 11.09l-.123.711c-2.127 11.664 1.667 23.484 9.297 32.545l.355.416a42.872 42.872 0 0110.45 28.113c0 2.915-.29 5.757-.84 8.507l-.157.747c-2.353 10.73-.186 21.893 5.74 31.125l.315.484a42.838 42.838 0 017.11 23.704 42.916 42.916 0 01-3.584 17.224l-.26.584c-5.486 12.045-4.365 25.986 2.11 37.51l.276.486a42.877 42.877 0 015.758 21.524 42.899 42.899 0 01-8.992 26.345l-.348.444c-7.079 8.897-9.916 20.498-7.97 31.688l.1.55c.488 2.598.745 5.274.745 8.016 0 24.549-20.543 44.3-45.375 43.006l-.753-.045h-30.555a42.046 42.046 0 01-8.227-18.828 120.664 120.664 0 0023.192-29.715 26.006 26.006 0 002.797-17.711c15.046-16.86 24.261-39.04 24.453-63.371l.004-.778v-18.07c13.624 0 24.694-10.934 24.914-24.506l.004-.412v-13.703c0-10.2-6.133-18.969-14.915-22.82-.996-7.09-4.968-13.223-10.617-17.09-2.468-22.008-12.3-41.79-26.98-56.817-16.75-29.011-48.094-48.539-84.004-48.539-52.996 0-96.06 42.535-96.917 95.327l-.013 1.603v4.086c-13.632 0-24.706 10.938-24.926 24.517l-.003.413v13.675c0 10.207 6.132 18.977 14.914 22.832.94 6.684 4.523 12.513 9.662 16.399l.353.262v2.402c0 25.844 10.059 49.332 26.469 66.777.008-.273.043-.543.059-.816a98.896 98.896 0 002.421 4.191 26.028 26.028 0 003.293 12.817 120.453 120.453 0 0015.539 21.894l.778.863h-1.88c0 12.393-5.346 23.532-13.852 31.25l-.401.36-.324 1.613v1.332c0 3.274.265 6.484.75 9.62l.152.939h-45.164c-8.375-.586-16.105-3.621-22.5-8.38a42.332 42.332 0 01-2.703-12.277 43.657 43.657 0 01.46-9.927l.126-.737c2.036-11.296-.462-23.034-7.455-32.107l-.354-.451a42.891 42.891 0 01-9.343-26.79c0-7.615 1.979-14.77 5.447-20.977l.31-.546c6.626-11.456 7.91-25.388 2.615-37.486l-.228-.51a42.907 42.907 0 01-3.844-17.808 42.837 42.837 0 016.792-23.216l.318-.487c6.057-9.164 8.369-20.3 6.174-31.045l-.12-.565a43.215 43.215 0 01-.996-9.25 42.87 42.87 0 0110.09-27.696l.36-.421c7.747-8.975 11.688-20.754 9.746-32.423l-.094-.538a43.642 43.642 0 01-.512-11.797c1.844-20.164 17.879-36.496 38-38.75l.556-.057.553-.052c10.137-.879 19.4-5.733 26.41-13.096l.387-.412c7.86-8.461 19.078-13.754 31.54-13.754 11.93 0 22.722 4.852 30.523 12.684 7.797-7.832 18.594-12.684 30.52-12.684zm-78.597 278.895l10.734-3.516a133.929 133.929 0 0182.456-.286l.884.286 7.621 2.496c3.098 7.148 3.043 15.645-1.11 23.145a120.759 120.759 0 01-67.183 55.96 120.905 120.905 0 01-27.996-13.644 120.882 120.882 0 01-20.184-26.816c-7.896-14.259-1.007-32.143 14.311-37.468l.467-.157 10.734-3.516-10.734 3.516z"/>
  <path fill="#151515" d="M287.027 0c14.692 0 28.86 6.18 38.868 16.945 5.593 6.028 12.816 9.703 20.332 10.356.46.039.918.082 1.37.137 24.856 2.78 44.555 22.875 46.833 47.769.449 4.875.234 9.754-.63 14.504-1.538 8.437 1.153 17.418 7.384 24.633a53.04 53.04 0 0112.878 34.648c0 3.84-.41 7.676-1.226 11.399-1.774 8.09-.086 16.816 4.629 23.949 5.734 8.676 8.765 18.781 8.765 29.219 0 7.648-1.593 15.03-4.742 21.949-4.062 8.933-3.34 19.715 1.942 28.851a53.058 53.058 0 017.101 26.528c0 11.953-4.09 23.675-11.515 33.011-5.356 6.73-7.493 15.54-5.868 24.164.606 3.235.914 6.555.914 9.868 0 11.962-4.105 23.573-11.44 32.882l-.395.497h12.125c16.41 0 31.882 4.05 45.492 11.199.402.183.793.387 1.16.613 30.334 16.459 51.074 48.442 51.486 85.216l.006 1.116v12.527c0 5.52-4.476 10-10 10-5.43 0-9.848-4.33-9.996-9.72l-.004-.28v-12.527c0-25.086-11.887-47.44-30.318-61.745l-.56-.43-22.516 77.492a10.01 10.01 0 01-9.602 7.21c-.922 0-1.86-.128-2.793-.398-5.215-1.517-8.251-6.903-6.887-12.125l.075-.27 23.859-82.117a77.443 77.443 0 00-23.387-5.507c-.041.255-.088.512-.147.768l-.099.384-26 92a10.009 10.009 0 01-9.617 7.285 9.986 9.986 0 01-2.727-.383c-5.222-1.474-8.3-6.84-6.975-12.07l.073-.27 24.86-87.972h-27.493l-15.703 56.14c-1.234 4.418-5.25 7.309-9.625 7.309a10.1 10.1 0 01-2.7-.371c-5.225-1.463-8.315-6.822-7.004-12.054l.071-.27 14.196-50.75h-4.7c-6.699 0-13.105-1.286-18.996-3.598-6.566 33.363-36.027 58.61-71.285 58.61-35.254 0-64.715-25.247-71.281-58.606a51.849 51.849 0 01-18.253 3.588l-.743.006H98.645c-42.66 0-77.443 34.357-78.135 76.854l-.01 1.29v12.527c0 5.524-4.477 10-10 10-5.43 0-9.848-4.326-9.996-9.72l-.004-.28v-12.527c0-53.576 43.151-97.263 96.524-98.131l1.62-.013h12.165c-6.704-8.25-10.993-18.532-11.743-29.743a53.634 53.634 0 01.723-13.105c1.613-8.95-.5-17.899-5.797-24.559-7.426-9.34-11.515-21.062-11.515-33.011 0-9.325 2.457-18.5 7.101-26.532 5.281-9.132 6.004-19.918 1.942-28.851-3.149-6.918-4.743-14.301-4.743-21.95 0-10.437 3.032-20.538 8.77-29.214 4.71-7.137 6.398-15.864 4.625-23.953a53.52 53.52 0 01-1.227-11.395 53.05 53.05 0 0112.88-34.652c6.23-7.215 8.921-16.196 7.382-24.633a53.738 53.738 0 01-.629-14.5c2.277-24.899 21.977-44.992 46.844-47.774.445-.05.898-.097 1.355-.136 7.52-.653 14.743-4.328 20.34-10.352C197.125 6.18 211.29 0 225.984 0c11.086 0 21.649 3.375 30.52 9.64C265.375 3.376 275.937 0 287.027 0zm49.47 491.977c2.632 0 5.21 1.07 7.07 2.93a10.08 10.08 0 012.93 7.07c0 2.628-1.071 5.21-2.93 7.07a10.04 10.04 0 01-7.07 2.93 10.053 10.053 0 01-7.071-2.93 10.08 10.08 0 01-2.93-7.07c0-2.63 1.07-5.211 2.93-7.07a10.087 10.087 0 017.07-2.93zm-39.153-116.149a130.622 130.622 0 01-37.66 19.961c-1.036.348-2.11.524-3.188.524a9.996 9.996 0 01-3.184-.524 130.808 130.808 0 01-37.66-19.957 52.228 52.228 0 01-11.773 19.363c.816 28.328 24.098 51.125 52.617 51.125 28.524 0 51.805-22.797 52.621-51.125a52.243 52.243 0 01-11.773-19.367zM287.027 20c-8.859 0-17.183 3.457-23.433 9.738a10.004 10.004 0 01-14.176 0C243.164 23.457 234.844 20 225.984 20c-9.289 0-17.89 3.75-24.214 10.559-8.98 9.664-20.79 15.586-33.258 16.664-.278.023-.563.05-.848.086-15.492 1.734-27.75 14.23-29.168 29.718a33.694 33.694 0 00.39 9.098c2.63 14.422-1.718 29.469-11.921 41.29a33.02 33.02 0 00-8.02 21.577c0 2.403.258 4.793.766 7.11 2.926 13.34.2 27.652-7.48 39.265a32.9 32.9 0 00-5.454 18.192c0 4.77.993 9.367 2.95 13.664 6.734 14.804 5.675 32.425-2.832 47.144a33.013 33.013 0 00-4.415 16.52c0 7.554 2.477 14.668 7.168 20.562 8.88 11.164 12.461 25.95 9.825 40.559a33.555 33.555 0 00-.45 8.219c1.094 16.351 14.247 29.543 30.586 30.687a9.78 9.78 0 011.736.28l.417.115h14.457c17.445 0 31.683-13.946 32.176-31.274a130.918 130.918 0 01-17.825-24.84 36.145 36.145 0 01-4.398-14.382c-17-19.406-26.405-44.073-26.595-69.961l-.003-.801v-8.422c-14.258-4.27-24.719-17.421-24.926-33l-.003-.473V194.48c0-15.824 10.57-29.222 25.023-33.503C152.031 104.09 199.047 58.53 256.504 58.53c57.46 0 104.48 45.555 106.836 102.446 14.3 4.238 24.8 17.408 25.008 33.018l.004.474v13.699c0 15.623-10.31 28.88-24.488 33.329l-.43.132v9.527c0 26.117-9.454 50.985-26.684 70.45a36.271 36.271 0 01-4.32 13.59 131.206 131.206 0 01-17.828 24.835c.487 17.155 14.447 30.998 31.657 31.277l.522.005h8.336a9.96 9.96 0 013.508-.395c9.305.652 18.156-2.48 24.926-8.805 6.781-6.324 10.515-14.914 10.515-24.18a33.19 33.19 0 00-.574-6.167c-2.699-14.34.899-29.032 9.871-40.313 4.692-5.898 7.168-13.008 7.168-20.562a33.053 33.053 0 00-4.414-16.52c-8.512-14.719-9.566-32.344-2.832-47.144a32.814 32.814 0 002.945-13.668c0-6.5-1.882-12.79-5.449-18.188-7.68-11.613-10.406-25.926-7.48-39.266.508-2.316.765-4.707.765-7.109 0-7.926-2.847-15.59-8.02-21.582-10.202-11.816-14.55-26.863-11.921-41.285a33.7 33.7 0 00.39-9.098c-1.417-15.488-13.675-27.988-29.156-29.719a24.805 24.805 0 00-.863-.085c-12.46-1.082-24.273-7-33.254-16.665C304.914 23.75 296.316 20 287.027 20zm-30.53 272.523c-12.592 0-25.183 1.943-37.446 5.833l-1.114.359-10.734 3.515a16.157 16.157 0 00-10.047 9.485 16.16 16.16 0 00.906 13.789c12.895 23.281 33.56 41.004 58.434 50.207 24.879-9.203 45.543-26.926 58.438-50.207a16.16 16.16 0 00.906-13.79 16.171 16.171 0 00-9.679-9.357l-.372-.127-10.734-3.515c-12.614-4.13-25.586-6.192-38.559-6.192zm-7.747 17.895c2.07 2.07 4.82 3.21 7.75 3.21 2.926 0 5.68-1.14 7.746-3.21 3.906-3.902 10.238-3.902 14.145 0 3.902 3.906 3.902 10.238 0 14.144-5.848 5.844-13.621 9.067-21.895 9.067-8.27 0-16.043-3.223-21.887-9.067-3.906-3.91-3.906-10.238 0-14.144 3.903-3.902 10.235-3.902 14.141 0zm7.754-231.887c-47.454 0-86.149 38.22-86.918 85.495l-.012 1.435v4.086c0 5.52-4.476 10-10 10-8.129 0-14.761 6.528-14.93 14.614l-.003.316v13.675c0 8.239 6.699 14.934 14.933 14.934 5.43 0 9.848 4.33 9.996 9.72l.004.28v16.965c0 16.594 4.656 32.59 13.317 46.394a36.103 36.103 0 0117.552-13.041l.537-.181 10.735-3.516c28.995-9.495 59.627-9.593 88.656-.294l.906.294 10.739 3.516a36.088 36.088 0 0118.359 13.597c8.344-13.363 12.903-28.791 13.055-44.833l.004-.83v-18.071c0-5.524 4.476-10 10-10 8.12 0 14.746-6.521 14.914-14.606l.004-.316v-13.7c0-8.226-6.692-14.917-14.918-14.917-5.43 0-9.848-4.33-9.997-9.72l-.003-.28v-4.086c0-47.934-38.997-86.93-86.93-86.93zm-20.957 73.766c17.015 0 30.896 13.706 31.171 30.657l.005.515v61.433c0 5.524-4.48 10-10 10-5.43 0-9.848-4.326-9.997-9.72l-.003-.28V183.47c0-6.063-4.858-11.013-10.884-11.168l-.292-.004h-35.188c-5.523 0-10-4.48-10-10 0-5.43 4.326-9.848 9.72-9.996l.28-.004h35.188zm-34.188 48.691c4.274 4.274 11.227 4.274 15.5 0 3.907-3.902 10.239-3.902 14.141 0 3.906 3.907 3.906 10.239 0 14.145-6.031 6.031-13.96 9.05-21.89 9.05s-15.856-3.015-21.891-9.05c-3.907-3.906-3.907-10.238 0-14.145 3.906-3.902 10.238-3.902 14.14 0zm100.25 0c4.274 4.274 11.227 4.274 15.5 0 3.907-3.902 10.239-3.902 14.141 0 3.906 3.907 3.906 10.239 0 14.145-6.035 6.035-13.965 9.05-21.89 9.05-7.93 0-15.856-3.015-21.891-9.05-3.906-3.906-3.906-10.238 0-14.145 3.902-3.902 10.234-3.902 14.14 0zm-12.203-48.691h30.7c5.523 0 10 4.476 10 10 0 5.426-4.327 9.848-9.72 9.996l-.28.004h-30.7c-5.523 0-10-4.48-10-10 0-5.43 4.326-9.848 9.72-9.996l.28-.004h30.7z"/>
</svg>
