<svg viewBox="0 0 512 512" xmlns="http://www.w3.org/2000/svg">
  <path fill="#8f9ecf" d="M151.594 411.172c0 6.758 3.976 13.191 11.14 19.023 24.395 8.047 57.192 12.977 93.266 12.977 75.336 0 136.406-21.488 136.406-48 0-6.758-3.976-13.192-11.14-19.024-24.395-8.046-57.192-12.976-93.266-12.976-75.336 0-136.406 21.492-136.406 48z"/>
  <path fill="#7386c2" d="M464.508 348.926C420.289 331.633 360.203 321 294 321c-135.863 0-246 44.77-246 100 0 19.5 13.746 37.691 37.492 53.074C129.711 491.367 189.797 502 256 502c135.863 0 246-44.773 246-100 0-19.5-13.746-37.691-37.492-53.074zM258 441.172c-75.336 0-136.406-21.488-136.406-48s61.07-48 136.406-48c75.336 0 136.406 21.488 136.406 48s-61.07 48-136.406 48z"/>
  <path fill="#fff" d="M297.46 394.73c0-8.835-18.562-16-41.46-16s-41.46 7.165-41.46 16c0 8.84 18.562 16 41.46 16s41.46-7.16 41.46-16z"/>
  <path fill="#abb7db" d="M277.52 43.793l-62.082 97.496c-21.66 34.016-16.782 78.516 11.734 107.031a83.607 83.607 0 004.848 4.457c29.132 8.43 61.847 1.172 84.808-21.789 28.516-28.515 33.395-73.015 11.735-107.035l-51.043-80.16z"/>
  <path fill="#151515" d="M256 292c66.969 0 130.082 10.664 177.715 30.023C484.195 342.547 512 370.95 512 402c0 31.05-27.805 59.453-78.285 79.977C386.082 501.336 322.969 512 256 512c-66.969 0-130.082-10.664-177.715-30.023C27.805 461.453 0 433.05 0 402c0-20.77 12.61-40.719 36.465-57.688a9.996 9.996 0 0113.945 2.352c3.2 4.5 2.149 10.742-2.351 13.945l-.771.553C34.654 370.3 20 384.64 20 402c0 22.047 23.988 44.445 65.816 61.445C131.113 481.86 191.551 492 256 492c64.45 0 124.887-10.14 170.184-28.555C468.012 446.445 492 424.047 492 402c0-22.047-23.988-44.445-65.816-61.445C380.887 322.14 320.449 312 256 312c-51.598 0-100.746 6.496-142.129 18.79-5.3 1.573-10.863-1.446-12.433-6.74-1.575-5.292 1.44-10.863 6.738-12.433C151.383 298.781 202.5 292 256 292zm0 45.172c37.535 0 72.973 5.195 99.773 14.625 38.543 13.562 46.633 31.074 46.633 43.375 0 12.3-8.09 29.812-46.633 43.375-26.8 9.43-62.238 14.625-99.773 14.625s-72.973-5.195-99.773-14.625c-38.543-13.563-46.633-31.074-46.633-43.375 0-12.3 8.09-29.813 46.633-43.375 26.804-9.43 62.238-14.625 99.773-14.625zm0 20c-77.164 0-126.406 22.508-126.406 38s49.242 38 126.406 38c77.164 0 126.406-22.508 126.406-38s-49.242-38-126.406-38zm0 11.558c24.785 0 51.46 8.137 51.46 26 0 17.864-26.675 26-51.46 26s-51.46-8.136-51.46-26c0-17.863 26.675-26 51.46-26zm0 20c-15.246 0-25.738 3.383-29.98 6l.384.23c4.466 2.585 14.792 5.77 29.596 5.77 15.246 0 25.738-3.378 29.98-6l-.384-.23c-4.466-2.584-14.792-5.77-29.596-5.77zM83.375 330.54a9.999 9.999 0 01-5.063 13.206l-.566.254a10.001 10.001 0 01-13.207-5.063c-2.246-5.042.02-10.957 5.063-13.203l.57-.254c5.043-2.25 10.953.016 13.203 5.06zM256 0c3.418 0 6.602 1.746 8.438 4.629L337 118.586c11.691 18.363 16.824 40.398 14.453 62.039-2.375 21.64-12.156 42.04-27.555 57.434-18.136 18.136-42.25 28.125-67.898 28.125-25.648 0-49.762-9.989-67.898-28.125-15.395-15.395-25.18-35.793-27.555-57.434-2.371-21.64 2.762-43.676 14.457-62.04L247.563 4.63A10.005 10.005 0 01256 0zm0 28.617l-64.129 100.711c-19.289 30.293-15.023 69.192 10.371 94.59 29.64 29.64 77.875 29.64 107.516 0 25.394-25.398 29.66-64.297 10.37-94.59L256 28.618zm-25.258 166.801c13.93 13.926 36.59 13.926 50.516 0 3.906-3.906 10.234-3.906 14.144 0 3.903 3.906 3.903 10.238 0 14.144-10.867 10.86-25.132 16.293-39.402 16.293s-28.535-5.433-39.398-16.292c-3.907-3.907-3.907-10.239 0-14.145a9.996 9.996 0 0114.14 0zm75.754-30.453l.106.344c1.527 5.304-1.536 10.847-6.844 12.375a9.872 9.872 0 01-2.774.394c-4.343 0-8.34-2.851-9.601-7.23-1.625-5.282 1.336-10.875 6.613-12.5s10.875 1.336 12.5 6.617z"/>
</svg>
