<svg viewBox="0 0 404 512" xmlns="http://www.w3.org/2000/svg">
  <path fill="#d28369" d="M53 468.555h341V36H97c-24.3 0-44 19.7-44 44v388.555z"/>
  <path fill="#fff" d="M394 414.055H53.973C29.688 414.055 10 433.742 10 458.027 10 482.313 29.688 502 53.973 502H394v-87.945zM283.516 141.04h-57.743v-39.52l21.497-21.493h-90.54l21.497 21.493v39.52h-57.743l-21.496-21.493v90.535l21.496-21.492h57.743V322.53l-21.497 21.496h90.54l-21.497-21.496V188.59h57.743l21.496 21.492v-90.535z"/>
  <path fill="#000" d="M10 236.512c2.629 0 5.21-1.07 7.07-2.934a10.07 10.07 0 002.93-7.066c0-2.64-1.07-5.211-2.93-7.07a10.03 10.03 0 00-7.07-2.93 10.03 10.03 0 00-7.07 2.93 10.059 10.059 0 00-2.93 7.07 10.07 10.07 0 002.93 7.066 10.067 10.067 0 007.07 2.934z"/>
  <path fill="#000" d="M394 0H53.973C24.21 0 0 24.21 0 53.973v124.52c0 5.523 4.477 10 10 10s10-4.477 10-10V53.972C20 35.238 35.238 20 53.973 20H384v384.055h-28v-86c0-5.524-4.477-10-10-10s-10 4.476-10 10v86H53.973c-12.868 0-24.688 4.53-33.973 12.074V265.75c0-5.523-4.477-10-10-10s-10 4.477-10 10v192.277C0 487.79 24.21 512 53.973 512H394c5.523 0 10-4.477 10-10V10c0-5.523-4.477-10-10-10zm-10 492H53.973C35.238 492 20 476.762 20 458.027c0-18.73 15.238-33.972 33.973-33.972H384V492z"/>
  <path fill="#000" d="M346 284.781c2.629 0 5.21-1.062 7.07-2.93a10.066 10.066 0 002.93-7.07c0-2.633-1.07-5.203-2.93-7.07a10.072 10.072 0 00-7.07-2.922c-2.629 0-5.21 1.063-7.07 2.922a10.087 10.087 0 00-2.93 7.07c0 2.64 1.07 5.207 2.93 7.07a10.046 10.046 0 007.07 2.93zM124.625 131.04l-18.566-18.563a9.989 9.989 0 00-10.899-2.168 9.998 9.998 0 00-6.172 9.238v90.535a9.998 9.998 0 006.172 9.238 9.995 9.995 0 0010.899-2.164l18.566-18.566h43.602v119.805L149.66 336.96a9.998 9.998 0 007.074 17.066h90.536a9.996 9.996 0 009.238-6.172 9.995 9.995 0 00-2.164-10.894l-18.567-18.566V198.59h43.602l18.562 18.562a10.006 10.006 0 0010.899 2.168 10 10 0 006.176-9.238v-90.539a10 10 0 00-6.176-9.238 10.006 10.006 0 00-10.899 2.168l-18.562 18.566h-43.602V105.66l18.567-18.562a9.996 9.996 0 002.164-10.899 9.992 9.992 0 00-9.238-6.172h-90.536a10.008 10.008 0 00-9.242 6.172 10.004 10.004 0 002.168 10.899l18.567 18.562v25.38h-43.602zm53.602 20c5.523 0 10-4.477 10-10v-39.517c0-2.652-1.055-5.199-2.93-7.074l-4.422-4.422h42.254l-4.426 4.422a10.009 10.009 0 00-2.93 7.074v39.516c0 5.524 4.48 10 10 10h57.747a10 10 0 007.07-2.93l4.422-4.422v42.254l-4.422-4.425a9.996 9.996 0 00-7.07-2.926h-57.747c-5.52 0-10 4.476-10 10V322.53c0 2.653 1.055 5.2 2.93 7.074l4.426 4.422h-42.254l4.422-4.422a10.009 10.009 0 002.93-7.074V188.59c0-5.524-4.477-10-10-10h-57.743a9.996 9.996 0 00-7.07 2.926l-4.426 4.425v-42.254l4.426 4.422a10 10 0 007.07 2.93h57.743z"/>
</svg>
