<svg viewBox="0 0 416 513" xmlns="http://www.w3.org/2000/svg">
  <path fill="#f0cdc2" d="M290.352 391.409h-56.156l19.675-27.053h-54.744l46.724-64.246-.004-.016c13.91 16.724 36.368 25.065 58.736 20.16l62.27-13.655a109.43 109.43 0 00-13.663-52.943l-17.883-25.21-14.152-.372c-.274-.642-.576-1.272-.865-1.902l-21.57 4.278-12.634-29.428a81.438 81.438 0 00-9.507-16.482c-34.352-13.832-74.25-2.787-96.434 27.718L91.577 334.043c-21.366 29.378-20.853 69.045.65 97.789a82.373 82.373 0 0030.924 6.027h85.39l26.876.082H97.249l-6.42 59.03 34.146 6.011h130.309c38.176 0 69.166-30.872 69.31-69.049.056-14.332-4.246-27.659-11.655-38.74a69.122 69.122 0 00-22.587-3.784z"/>
  <path fill="#d7d7e0" d="M88.673 448.877v54.105h-51.1c-15.08 0-27.252-12.332-27.049-27.416.196-14.799 12.251-26.69 27.05-26.69h51.1zM328.11 221.429l35.303-35.304c9.742-9.741 25.565-9.632 35.178.239 9.332 9.584 9.324 24.836.055 34.414l-.29.294-35.303 35.3-34.943-34.943 35.303-35.304-35.303 35.304zm13.843-162.775a70.905 70.905 0 013.585 22.27c0 38.77-31.114 70.268-69.731 70.894l-1.173.01-41.679-16.227h10.92l10.52-30.56-4.767-4.278a16.23 16.23 0 01-3.147-20.309c4.514-7.675 14.35-10.263 22.042-5.863l.295.172 5.816 3.491 64.928-19.303s.876-.106 2.391-.297z"/>
  <path fill="#898998" d="M337.855 62.13c-12.986-14.748-32.004-24.056-53.201-24.056-39.159 0-70.904 31.746-70.904 70.904 0 3.143.21 6.235.606 9.269a71.292 71.292 0 0018.599 20.023h10.92l10.52-30.56-4.767-4.278a16.225 16.225 0 01-3.147-20.305c4.572-7.773 14.603-10.329 22.337-5.69l5.816 3.487 63.221-18.795z"/>
  <path fill="#151515" d="M274.634 0c44.622 0 80.924 36.301 80.924 80.924 0 44.622-36.302 80.923-80.924 80.923-2.176 0-4.329-.11-6.466-.281 11.536 9.204 20.798 21.118 26.788 34.73l.336.772 9.432 21.977 14.916-2.959a10.09 10.09 0 011.122-1.47l.263-.272 35.3-35.303c6.44-6.44 14.948-10.035 24.027-10.168l.763-.004c9.366.063 18.122 3.792 24.654 10.505 13.046 13.403 13.035 34.984.068 48.38l-.397.403-35.303 35.303c-.333.329-.689.626-1.053.9 5.08 13.417 7.785 27.742 7.785 42.239 0 4.61-3.146 8.615-7.597 9.72l-.274.065-62.27 13.655c-21.528 4.727-43.137-1.068-59.164-14.187l-.484-.4-28.278 38.885h36.482c21.244 0 41.205 8.29 56.203 23.342 14.994 15.053 23.21 35.045 23.127 56.29-.162 43.145-35.045 78.323-78.025 79.022l-1.305.011H37.574c-9.997 0-19.37-3.918-26.392-11.037C4.164 494.853.372 485.429.498 475.432c.274-19.966 16.576-36.246 36.471-36.57l.604-.005h42.313v-.916c0-.266.02-.524.04-.786a92.345 92.345 0 01-26.885-21.48c-27.766-32.323-29.912-78.828-5.385-113.531l.751-1.048 88.568-121.78a91.677 91.677 0 0153.209-35.328 91.618 91.618 0 0131.718-1.757c-17.244-14.853-28.192-36.818-28.192-61.307C193.71 36.3 230.012 0 274.634 0zM79.886 458.896H37.573c-9.268 0-16.908 7.538-17.033 16.803a16.905 16.905 0 004.908 12.191 16.898 16.898 0 0011.709 5.068l.416.005h42.313v-34.067zm164.376-289.13c-30.897-16.159-69.585-7.332-90.457 20.485l-.627.849-88.567 121.78c-19.828 27.265-18.337 64.169 3.632 89.738a72.307 72.307 0 0054.255 25.219l.653.003 79.229.082c5.53 0 10.02 4.485 10.02 10.02 0 5.44-4.34 9.867-9.74 10.015l-.28.004H99.926v45.002h155.358c32.571 0 59.17-26.497 59.295-59.069.059-15.878-6.082-30.822-17.287-42.074-11.054-11.092-25.712-17.271-41.347-17.44l-.661-.004h-97.656c-5.534 0-10.02-4.49-10.02-10.02 0-5.44 4.335-9.867 9.74-10.016l.28-.003h36.395l39.421-54.2a69.929 69.929 0 01-7.29-14.588l-.326-.927-23.754-68.943c-1.8-5.233.979-10.935 6.212-12.736 5.142-1.777 10.739.88 12.639 5.94l.097.268 23.753 68.943c8.14 23.624 32.52 37.498 56.92 32.528l.74-.156L356.5 298.61c-1.924-23.502-12.271-45.932-29.07-62.606l-.55-.541-.33-.321-25.886 5.135a10.012 10.012 0 01-11.04-5.616l-.114-.259-12.634-29.432c-6.478-15.092-18.059-27.593-32.615-35.206zm-8.841 258.16c2.634 0 5.217 1.06 7.084 2.927a10.097 10.097 0 012.935 7.092 10.1 10.1 0 01-2.935 7.084 10.12 10.12 0 01-7.084 2.936 10.148 10.148 0 01-7.096-2.936 10.088 10.088 0 01-2.924-7.084c0-2.646 1.06-5.229 2.924-7.092a10.123 10.123 0 017.096-2.927zm145.561-239.018h-.101a14.56 14.56 0 00-10.103 4.032l-.28.273-28.768 28.764a118.81 118.81 0 0117.597 22.39l.587.975 31.358-31.354c5.652-5.651 5.71-14.908.137-20.634a14.577 14.577 0 00-10.427-4.446zm-45.94-115.491l-57.55 17.107c-2.586.77-5.366.462-7.717-.841l-.292-.168-5.82-3.488a6.178 6.178 0 00-4.728-.692 6.18 6.18 0 00-3.82 2.869 6.235 6.235 0 001.011 7.59l.195.183 4.767 4.277a10.004 10.004 0 012.875 10.423l-.096.294-9.425 27.381a60.572 60.572 0 0020.192 3.456c33.573 0 60.885-27.31 60.889-60.884 0-2.226-.135-4.42-.374-6.582l-.108-.925zm-60.408-53.378c-33.57 0-60.884 27.315-60.884 60.885 0 19.01 8.767 35.999 22.46 47.172l.448.362 6.101-17.73c-9.107-8.325-11.182-22.027-4.916-32.681 3.578-6.082 9.312-10.391 16.15-12.13 6.681-1.701 13.606-.75 19.562 2.681l.414.243 2.035 1.222 53.327-15.856c-9.914-20.215-30.7-34.168-54.697-34.168z"/>
</svg>
