<svg viewBox="0 0 404 512" xmlns="http://www.w3.org/2000/svg">
  <path fill="#d28369" d="M392.95 92.02l-36.68 31.683H246.28V50.06l33.059-33.063H159.605l40.06 40.059v73.648H92.05l-7-7H51.992v88.613h105.676v7h41.996v249.625L166.602 502H286.34l-40.059-40.059V212.316h107.614L392.617 248l1.332-28.684v-88.613z"/>
  <path fill="#151515" d="M286.34 0c4.043 0 7.687 2.438 9.238 6.172a10.011 10.011 0 01-2.168 10.898L256.281 54.2v59.503h93.469l37.129-37.129a10.003 10.003 0 0110.898-2.168 10.007 10.007 0 016.172 9.239v168.73c0 4.043-2.437 7.691-6.172 9.238a10.003 10.003 0 01-10.898-2.168l-37.129-37.129h-93.469v124.875c0 5.524-4.48 10-10 10-5.523 0-10-4.476-10-10V212.316c0-5.52 4.477-9.996 10-9.996h107.61a9.996 9.996 0 017.07 2.926l22.988 22.992V107.785l-22.984 22.988a10.006 10.006 0 01-7.07 2.93H246.28c-5.52 0-10-4.476-10-10V50.06a10 10 0 012.93-7.07l22.988-22.993H141.75l22.988 22.988a10 10 0 012.93 7.07v73.65c0 5.523-4.48 10-10 10H50.055a10.006 10.006 0 01-7.07-2.93l-22.989-22.989v120.45l22.988-22.989a10.006 10.006 0 017.07-2.93h107.614c5.52 0 10 4.477 10 10v249.625a10 10 0 01-2.93 7.07L141.75 492H262.2l-22.99-22.988a10 10 0 01-2.929-7.07v-34.934c0-5.52 4.48-9.996 10-9.996 5.524 0 10 4.476 10 9.996V457.8l37.13 37.129A9.998 9.998 0 01286.34 512H117.61a10.002 10.002 0 01-9.239-6.172 10.004 10.004 0 012.168-10.898l37.129-37.13V222.317H54.199l-37.129 37.13a9.996 9.996 0 01-10.898 2.167A10.002 10.002 0 010 252.375V83.645c0-4.043 2.438-7.688 6.172-9.239a10.003 10.003 0 0110.898 2.168l37.13 37.13h93.468V54.198L110.539 17.07a10.003 10.003 0 01-2.168-10.898A10.002 10.002 0 01117.61 0h168.73zm-40.063 376.016c2.633 0 5.211 1.07 7.07 2.93a10.07 10.07 0 012.93 7.066c0 2.633-1.07 5.21-2.93 7.07a10.073 10.073 0 01-7.07 2.93 10.07 10.07 0 01-7.066-2.93 10.059 10.059 0 01-2.93-7.07 10.07 10.07 0 012.93-7.067 10.07 10.07 0 017.066-2.93zm-49.3-70.493a10.07 10.07 0 017.066 2.93 10.073 10.073 0 012.93 7.07 10.07 10.07 0 01-2.93 7.067 10.07 10.07 0 01-7.066 2.93c-2.633 0-5.211-1.07-7.07-2.93a10.07 10.07 0 01-2.93-7.067c0-2.632 1.066-5.21 2.93-7.07a10.073 10.073 0 017.07-2.93zm0-103.203c5.52 0 9.996 4.477 9.996 9.996v66.711c0 5.524-4.477 10-9.996 10-5.524 0-10-4.476-10-10v-66.71c0-5.52 4.476-9.997 10-9.997z"/>
</svg>
