<svg viewBox="0 0 512 512" xmlns="http://www.w3.org/2000/svg">
  <path fill="#d7d7e0" d="M464.746 10a56.578 56.578 0 013.43 19.46c0 31.321-25.395 56.716-56.715 56.716-6.836 0-13.39-1.211-19.461-3.426 7.941 21.734 28.8 37.25 53.285 37.25C476.61 120 502 94.61 502 63.29 502 38.8 486.484 17.94 464.746 10z"/>
  <path fill="#6aa381" d="M384 502a267.957 267.957 0 00-48.066-37.54c-29.22-11.003-60.868-17.042-93.934-17.042-60.77 0-116.777 20.352-161.617 54.582H384z"/>
  <path fill="#8ccfa7" d="M383.781 183.23a67.889 67.889 0 00-10.972-9.73 46.137 46.137 0 001.632-12.172c0-2.96-.28-5.86-.812-8.668a67.926 67.926 0 00-18.152-19.156 46.279 46.279 0 001.457-8.348c-6.82-5.406-15.192-8.933-24.348-9.781-7.469-18.836-25.84-32.164-47.336-32.164-2.879 0-5.7.25-8.45.71C263.513 63.509 240.509 50 214.337 50c-26.176 0-49.18 13.508-62.465 33.922-2.75-.461-5.57-.711-8.453-.711-28.117 0-50.914 22.797-50.914 50.914a50.674 50.674 0 007.883 27.203 69.962 69.962 0 00-5.532-.242c-37.289 0-67.52 30.23-67.52 67.52 0 1.832.095 3.636.24 5.43 12.347 13.573 30.152 22.093 49.948 22.093 17.407 0 33.27-6.59 45.243-17.406 9.132 21.09 27.16 37.43 49.351 44.285l4.883-.067v35.008a78.907 78.907 0 0012.45 5.059l4.886-.067v102.477H217V282.387l4.004-.055c21.93-7.445 39.535-24.238 48.105-45.625 12.188 12.004 28.91 19.418 47.371 19.418 9.793 0 19.09-2.102 27.489-5.848 10.46 5.63 22.625 6.957 33.886 3.953 2.813-10.542 1.84-21.878-2.91-31.863A67.17 67.17 0 00384 188.605c0-1.808-.078-3.601-.219-5.375z"/>
  <path fill="#c2edd3" d="M129.926 154.105c3.867 14.489.129 30.583-11.235 41.95-11.367 11.367-27.464 15.101-41.949 11.238-3.867-14.488-.133-30.586 11.235-41.95 11.367-11.366 27.46-15.105 41.949-11.238zm128.32-1.652c11.399-11.398 27.54-15.148 42.07-11.27 3.88 14.532.13 30.672-11.27 42.07-11.398 11.4-27.538 15.145-42.07 11.27-3.874-14.53-.128-30.671 11.27-42.07zM149.211 86.867c8.887 8.887 11.805 21.469 8.785 32.793-11.328 3.024-23.91.102-32.793-8.781-8.887-8.887-11.808-21.469-8.785-32.793 11.328-3.023 23.91-.102 32.793 8.781z"/>
  <path fill="#151515" d="M339.902 455.148a278.278 278.278 0 0151.114 39.723c3.937 3.875 3.988 10.207.113 14.14A9.954 9.954 0 01384 512a9.977 9.977 0 01-7.012-2.871 257.902 257.902 0 00-47.433-36.863c-4.727-2.86-6.243-9.004-3.383-13.73 2.855-4.731 9-6.247 13.73-3.388zM197 0c26.582 0 51.273 12.348 67.227 33.328a58.427 58.427 0 013.691-.117c23.14 0 43.82 12.8 54.187 33.078 11.582 2.336 22.16 8.281 30.25 17.106 9.516 10.375 14.754 23.847 14.754 37.937a56.13 56.13 0 01-.586 8.094C383.836 144.09 394 165.758 394 188.606a77.552 77.552 0 01-8 34.289 56.434 56.434 0 011.516 33.914 9.998 9.998 0 01-7.082 7.082c-12.325 3.289-25.211 2.324-36.793-2.676-8.688 3.262-17.801 4.914-27.16 4.914-15.918 0-31.137-4.79-43.985-13.676a89.115 89.115 0 01-44.795 38.065l-.701.267v126.246a275.251 275.251 0 0148.984 9.832c5.297 1.575 8.309 7.145 6.735 12.438-1.574 5.293-7.145 8.308-12.438 6.734-23.676-7.047-48.332-10.617-73.281-10.617-67.754 0-131.676 26.176-179.984 73.71A9.986 9.986 0 0110 512a9.96 9.96 0 01-7.129-2.988c-3.871-3.934-3.82-10.266.117-14.14 44.43-43.716 101.116-70.654 162.16-77.628l1.852-.205v-36.707c0-5.52 4.477-10 10-10 5.43 0 9.848 4.33 9.996 9.72l.004.28v35.086h20V129.812a10 10 0 012.7-6.832l.23-.238 18-18a9.996 9.996 0 0114.14 0c3.836 3.835 3.905 10.009.21 13.93l-.21.215-15.07 15.07v63.902l7.93-7.93c.289-.288.593-.546.906-.792-1.746-16.004 3.797-32.211 15.34-43.758 13.469-13.465 33.281-18.777 51.719-13.86 3.46.922 6.16 3.626 7.085 7.086 4.918 18.43-.394 38.25-13.863 51.72-10.144 10.144-23.898 15.663-37.945 15.663-3.047 0-6.107-.264-9.147-.79l-.912-.167-21.11 21.11v42.808a69.244 69.244 0 0032.821-35.96 10.003 10.003 0 0116.3-3.406c10.833 10.667 25.165 16.542 40.356 16.542a57.082 57.082 0 0023.41-4.98 9.995 9.995 0 018.817.328 36.121 36.121 0 0020.563 4.172 36.346 36.346 0 00-3.356-18.985 9.998 9.998 0 01.375-9.3A57.457 57.457 0 00374 188.604c0-18.605-9.086-36.156-24.309-46.945a9.999 9.999 0 01-3.936-10.506l.073-.283a36.377 36.377 0 001.281-9.539c0-18.605-13.81-33.96-32.218-35.94l-.559-.056a10.003 10.003 0 01-8.255-5.984l-.12-.29c-6.227-15.703-21.156-25.851-38.039-25.851-2.234 0-4.523.191-6.805.574a10.008 10.008 0 01-10.027-4.406C239.109 30.984 218.89 20 197 20c-21.89 0-42.11 10.984-54.082 29.375a9.994 9.994 0 01-10.031 4.41 41.162 41.162 0 00-6.801-.574c-22.563 0-40.914 18.355-40.914 40.914a40.747 40.747 0 006.332 21.852 10.01 10.01 0 01.11 10.527 10.005 10.005 0 01-9.368 4.793c-1.75-.14-3.297-.211-4.723-.211-31.718 0-57.523 25.805-57.523 57.52 0 31.718 25.805 57.523 57.52 57.519a57.385 57.385 0 0038.543-14.824 9.995 9.995 0 018.824-2.352 9.99 9.99 0 017.054 5.797 69.25 69.25 0 0034.444 35.352l.615.28V141.587l-11.273-11.277a44.324 44.324 0 01-6.457.492c-11.528 0-22.813-4.524-31.141-12.856-11.05-11.05-15.41-27.312-11.375-42.441a10.004 10.004 0 017.086-7.082c15.125-4.035 31.387.324 42.441 11.375 9.214 9.218 13.756 22.053 12.677 34.834l-.052.572 15.164 15.168a10 10 0 012.925 6.74l.005.33v176.891c0 5.523-4.477 10-10 10-5.426 0-9.848-4.326-9.996-9.72l-.004-.28V291.84c-19.945-6.723-36.742-20.188-47.617-37.98a77.37 77.37 0 01-41.86 12.269C34.777 266.129 0 231.352 0 188.605c0-39.433 29.605-72.09 67.754-76.906a60.865 60.865 0 01-2.586-17.57c0-33.59 27.328-60.918 60.918-60.918 1.223 0 2.453.039 3.687.117C145.73 12.348 170.422 0 197 0zm110.855 438.54l.262.108c4.98 2.13 7.375 7.856 5.356 12.91a10.007 10.007 0 01-9.29 6.29 9.962 9.962 0 01-3.71-.72l-.262-.108c-4.98-2.13-7.375-7.852-5.352-12.907 2.051-5.129 7.871-7.625 12.996-5.574zM177 338.331c2.633 0 5.21 1.07 7.07 2.93a10.073 10.073 0 012.93 7.07 10.07 10.07 0 01-2.93 7.066 10.027 10.027 0 01-7.07 2.934 10.04 10.04 0 01-7.07-2.934 10.07 10.07 0 01-2.93-7.066c0-2.633 1.07-5.21 2.93-7.07a10.05 10.05 0 017.07-2.93zm-44.496-193.89a10.002 10.002 0 017.086 7.085c4.906 18.391-.39 38.164-13.828 51.598-10.125 10.125-23.844 15.629-37.86 15.629a53.21 53.21 0 01-13.738-1.8 9.997 9.997 0 01-7.086-7.083c-4.906-18.39.39-38.164 13.828-51.598 13.438-13.437 33.207-18.738 51.598-13.832zm-37.457 27.972c-6.945 6.945-10.414 16.606-9.676 26.246 9.645.742 19.3-2.73 26.246-9.676 6.95-6.945 10.418-16.605 9.68-26.246-9.649-.742-19.3 2.73-26.25 9.676zm170.27-12.89c-6.977 6.98-10.458 16.68-9.712 26.37 9.692.747 19.391-2.734 26.372-9.71 6.976-6.98 10.46-16.684 9.71-26.371-9.69-.747-19.39 2.734-26.37 9.71zM457.675 2.93A10 10 0 01468.18.61C494.39 10.183 512 35.37 512 63.29c0 36.784-29.926 66.71-66.71 66.71-27.919 0-53.106-17.61-62.68-43.82a10.003 10.003 0 012.32-10.504 10 10 0 0110.504-2.32 46.564 46.564 0 0016.027 2.82c25.758 0 46.715-20.957 46.715-46.715 0-5.512-.95-10.906-2.82-16.027a10 10 0 012.32-10.504zM125.27 86.937c.027 6.25 2.492 12.36 7.003 16.868 4.512 4.511 10.618 6.976 16.868 7.004-.028-6.25-2.489-12.36-7-16.868-4.512-4.511-10.621-6.976-16.871-7.004zm352.902-56.804c-.36 36.254-29.785 65.68-66.04 66.039C420.743 104.82 432.614 110 445.29 110 471.043 110 492 89.047 492 63.29c0-12.677-5.18-24.548-13.828-33.157z"/>
</svg>
