<svg viewBox="0 0 482 512" xmlns="http://www.w3.org/2000/svg">
  <path fill="#d7d7e0" d="M354.11 24.191c6.543 10.718 5.647 24.687-2.665 34.53l-.297.345 26.5-26.496c11.072 10.972 11.661 28.459 1.802 40.144l-.302.352 30.34-30.336a29.5 29.5 0 0118.196-8.546c4.595 7.719 5.222 17.449 2.202 25.91 9.077-.776 18.444 2.617 24.993 10.176 9.838 11.357 8.826 29.672-1.607 40.449l-.319.324-10.868 10.869c.16 4.01-.491 8.047-1.914 11.847 9.628-.76 19.554 3.165 26.079 11.796 8.852 11.713 7.378 28.236-2.829 38.742l-.312.316-27.003 27.003a29.728 29.728 0 01-1.83 11.882c8.296-.622 16.801 2.235 23.15 8.584 11.466 11.466 11.58 29.985.348 41.588l-.344.35-90.551 90.55a145.314 145.314 0 01-101.8 42.556l-1.157.003a70.495 70.495 0 00-49.48 20.183l-.47.465L139.75 502H69.84L39.965 373.031l5.335-5.336L38 347.09l59.629-59.63a70.517 70.517 0 0020.65-49.291l.002-.661-.023-16.012a145.305 145.305 0 0124.099-80.349l.522-.784 44.7-66.656c5.355-7.984 13.831-12.594 22.702-13.32 5.881 9.478 6.218 21.917.282 32.077l-.258.434-17.118 28.235c-2.675 4.414 3.168 9.004 6.82 5.351l42.204-42.203a31.414 31.414 0 01-3.632 22.15l-.278.467-17.114 28.23c-2.675 4.415 3.168 9.009 6.817 5.356L335.488 33a30.595 30.595 0 0118.621-8.809z"/>
  <path fill="#151515" d="M69.844 492.004c2.629 0 5.21 1.066 7.07 2.93a10.07 10.07 0 012.93 7.066c0 2.633-1.07 5.21-2.93 7.07a10.1 10.1 0 01-7.07 2.93c-2.64 0-5.211-1.07-7.078-2.93a10.065 10.065 0 01-2.922-7.07c0-2.629 1.062-5.207 2.922-7.066a10.074 10.074 0 017.078-2.93zm286.984-480.41a39.377 39.377 0 019.995 16.885l.17.6 7.425-7.423c15.457-15.46 40.613-15.46 56.078 0 7.488 7.489 11.613 17.45 11.613 28.04 0 .507-.02 1.015-.039 1.519a39.743 39.743 0 0120.266 12.508c13.172 15.205 12.243 39.27-1.98 53.952l-.434.442-6.957 6.957c8.332 2.281 15.734 7.274 21.16 14.453 11.69 15.465 10.1 37.596-3.623 51.73l-.42.427-23.152 23.152a39.527 39.527 0 0117.468 10.18c7.489 7.488 11.614 17.445 11.614 28.039 0 10.404-3.982 20.197-11.223 27.642l-.39.397-90.555 90.55c-29.043 29.043-67.55 45.16-108.565 45.484l-1.556.005c-15.715 0-31.098 6.28-42.323 17.264l-.459.455-74.187 74.187a9.968 9.968 0 01-7.07 2.93 9.968 9.968 0 01-7.07-2.93c-3.836-3.835-3.906-10.009-.21-13.925l.21-.216 74.187-74.187c14.825-14.825 35.28-23.39 56.235-23.575l1-.003c35.778 0 69.429-13.79 94.898-38.866l.77-.763 90.554-90.55c7.664-7.665 7.664-20.134 0-27.798a19.56 19.56 0 00-9.957-5.332 39.7 39.7 0 01-5.252 6.8l-.514.524L343.98 331.7c-28.624 28.629-68.13 45.156-108.593 45.484l-1.532.005c-15.938 0-30.93 6.121-42.305 17.252l-.472.466-88.195 88.196a9.968 9.968 0 01-7.07 2.93 9.968 9.968 0 01-7.07-2.93c-3.836-3.832-3.906-10.005-.21-13.926l.21-.215 88.19-88.195c15.04-15.04 34.979-23.394 56.214-23.575l1.013-.003c35.273 0 69.791-14.15 94.925-38.877l.759-.752 90.55-90.551a19.528 19.528 0 005.754-13.899c0-5.25-2.043-10.183-5.753-13.898-7.087-7.087-18.283-7.616-25.987-1.6l-.303.24-33.003 32.86c-3.907 3.902-10.239 3.902-14.145 0-3.831-3.835-3.901-10.009-.209-13.925l.209-.216 79.457-79.312c7.664-7.66 7.664-20.133 0-27.793-7.086-7.09-18.283-7.62-25.99-1.6l-.303.24-80.812 80.817a9.963 9.963 0 01-7.07 2.926 9.963 9.963 0 01-7.071-2.926c-3.831-3.835-3.901-10.009-.209-13.93l.209-.215L416.352 63.594a19.515 19.515 0 005.757-13.899c0-5.25-2.043-10.183-5.757-13.894-7.572-7.575-19.844-7.663-27.524-.264l-.27.264-85.335 85.484c-3.907 3.902-10.239 3.902-14.145 0-3.831-3.835-3.9-10.009-.209-13.929l.21-.215 54.968-55.114c6.273-7.71 5.82-19.109-1.36-26.289-7.57-7.575-19.843-7.663-27.523-.264l-.27.264-107.796 107.793c-5.223 5.219-13.227 5.703-19.032 1.149-5.712-4.487-7.199-12.192-3.596-18.452l.178-.302 17.465-28.813c5.528-9.117 3.016-21.047-5.718-27.164-4.508-3.152-9.961-4.336-15.375-3.324a20.132 20.132 0 00-12.885 8.281l-.252.367-44.7 66.66c-14.864 22.172-22.783 47.958-22.923 74.627l-.002.92.023 16.016c.027 21.306-8.16 41.355-23.078 56.531l-.5.504-59.633 59.63A9.968 9.968 0 0110 343.09a9.968 9.968 0 01-7.07-2.93c-3.836-3.831-3.905-10.005-.21-13.925l.21-.215 59.629-59.63c11.298-11.294 17.575-26.264 17.72-42.21l.002-.657-.023-16.011c-.043-30.662 8.864-60.345 25.774-85.9l.542-.815 44.7-66.66c6.081-9.067 15.34-15.168 26.074-17.172 10.738-2.004 21.574.34 30.52 6.605 14.69 10.287 20.511 28.866 15.263 45.311l-.162.498 77.781-77.785c15.46-15.457 40.617-15.461 56.078 0zm89.504 132.468a39.84 39.84 0 01-5.262 6.812l-.515.524-23.504 23.508a39.422 39.422 0 0117.484 10.164 39.618 39.618 0 015.679 7.169l.388.64 15.34-15.336c7.093-7.094 8.05-18.254 2.23-25.957-2.992-3.961-7.176-6.578-11.84-7.524zm-176.023-14.144a10.02 10.02 0 017.066 2.93 10.046 10.046 0 012.934 7.07 10.09 10.09 0 01-2.934 7.07c-1.871 1.856-4.438 2.93-7.066 2.93-2.641 0-5.211-1.07-7.07-2.93a10.048 10.048 0 01-2.942-7.07c0-2.64 1.07-5.211 2.941-7.07 1.848-1.871 4.43-2.93 7.07-2.93zm165.976-59.523a39.66 39.66 0 01-5.277 6.819l-.512.52-7.422 7.422A39.46 39.46 0 01440.56 95.32a39.664 39.664 0 016.03 7.754c6.345-7.25 6.735-19.21.634-26.254a19.753 19.753 0 00-10.938-6.425z"/>
</svg>
