<svg viewBox="0 0 511 512" xmlns="http://www.w3.org/2000/svg">
  <path fill="#d28369" d="M308.264 122.39H293.4v-5.657h-17.965V90.124H253.48v32.265h-32.83v34.262h14.865v5.656h17.965v67.443h21.953v-73.1h32.83z"/>
  <path fill="#f0cdc2" d="M36.924 341.8H66.86v158.175H36.924z"/>
  <path fill="#d7d7e0" d="M499.363 356.03a30.66 30.66 0 00-4.909-9.068 31.006 31.006 0 00-3.77-4.012l2.43-1.758a30.575 30.575 0 006.12-10.304 30.836 30.836 0 00-3.781-6.222c-9.505-12.129-26.527-15.33-39.79-7.486l-125.337 74.144H226.338l.008.11-33.54-9.201-126.24.101v119.235l199.987-.1c37.972 0 75.075-11.381 106.522-32.671l114.428-77.485a30.538 30.538 0 0011.727-15.182 30.74 30.74 0 00-7.548-10.23l2.433-1.758a30.509 30.509 0 005.248-8.113z"/>
  <path fill="#151515" d="M502.31 295.558c11.018 14.063 11.497 33.31 1.786 47.74 5.637 8.447 7.965 18.806 6.382 28.896-1.71 10.92-7.868 20.756-16.921 27.07l-.455.314-114.433 77.485c-32.892 22.27-71.217 34.147-110.913 34.382l-1.203.004H9.98c-5.419 0-9.828-4.318-9.98-9.698V341.8c0-5.42 4.318-9.829 9.701-9.977l.28-.003h55.882c5.42 0 9.829 4.317 9.977 9.7l.004.28v7.505h115.964c.766 0 1.528.086 2.27.26l.37.095 31.84 8.733h100.311l122.986-72.753c17.509-10.358 40.18-6.093 52.725 9.918zm-42.234 52.321l-.327.19-125.34 74.14a9.94 9.94 0 01-4.723 1.386l-.358.006h-27.957c-3.224 7.614-8.814 13.934-16.12 18.093-5.798 3.303-12.215 4.987-18.71 4.987-3.124 0-6.269-.39-9.374-1.18l-.716-.189-55.82-15.31c-5.314-1.458-8.44-6.95-6.983-12.265 1.434-5.223 6.763-8.337 11.991-7.052l.27.07 55.821 15.31a17.872 17.872 0 0013.641-1.712 17.838 17.838 0 008.433-10.857 17.837 17.837 0 00-1.711-13.642 17.84 17.84 0 00-10.44-8.316l-.418-.12-80.772-22.152H75.843V390.2c0 5.51-4.467 9.98-9.98 9.98-5.415 0-9.824-4.32-9.972-9.7l-.004-.28v-38.42H19.96v139.71h35.926v-25.114c0-5.51 4.468-9.977 9.976-9.977 5.42 0 9.829 4.318 9.977 9.697l.004.28v25.115h190.709c35.755 0 70.319-10.49 100.025-30.35l.898-.606 114.433-77.485c4.81-3.255 7.953-8.21 8.853-13.945.897-5.739-.58-11.415-4.16-15.984-6.315-8.057-17.652-10.274-26.526-5.243zM65.863 419.93c2.628 0 5.201 1.068 7.057 2.923a10.053 10.053 0 012.924 7.057 10.05 10.05 0 01-2.924 7.053 10.003 10.003 0 01-7.057 2.923 10.001 10.001 0 01-7.052-2.923 10.05 10.05 0 01-2.924-7.053c0-2.628 1.068-5.2 2.924-7.057a10.05 10.05 0 017.052-2.924zm394.21-117.301l-.328.19-125.337 74.14a9.965 9.965 0 01-4.723 1.385l-.357.007h-40.144a37.83 37.83 0 0110.25 11.625 37.817 37.817 0 014.546 13.018l.093.647h22.522l122.99-72.752c12.332-7.295 27.217-7.326 39.326-1.12a20.677 20.677 0 00-2.312-21.898c-6.312-8.056-17.653-10.273-26.526-5.242zm-204.596-32.746c5.415 0 9.825 4.318 9.972 9.698l.004.279v23.883c0 5.508-4.468 9.976-9.976 9.976-5.42 0-9.829-4.317-9.977-9.697l-.004-.28V279.86c0-5.509 4.468-9.977 9.98-9.977zm-79.77-33.006c3.828 3.828 3.897 9.99.209 13.899l-.209.214-36.164 36.164a9.942 9.942 0 01-7.056 2.924 9.948 9.948 0 01-7.057-2.924c-3.824-3.828-3.893-9.99-.208-13.898l.208-.215 36.164-36.164c3.899-3.894 10.218-3.894 14.113 0zm173.434-.208l.215.208 35.945 35.946c3.898 3.898 3.898 10.218 0 14.113a9.948 9.948 0 01-7.057 2.924 9.946 9.946 0 01-6.799-2.676l-.257-.248-35.945-35.946c-3.895-3.894-3.895-10.214 0-14.113 3.827-3.824 9.989-3.893 13.898-.208zm-73.707-162.18c5.419 0 9.828 4.317 9.976 9.7l.004.28v22.288h22.85c5.42 0 9.829 4.318 9.977 9.697l.004.28v39.918c0 5.419-4.318 9.828-9.702 9.976l-.279.004h-22.85v63.119c0 5.419-4.317 9.828-9.7 9.976l-.28.004h-39.918c-5.42 0-9.829-4.317-9.977-9.7l-.004-.28V166.63h-22.85c-5.415 0-9.824-4.318-9.972-9.701l-.004-.28v-39.917c0-5.416 4.318-9.825 9.697-9.973l.28-.004h22.85V84.468c0-5.42 4.317-9.83 9.7-9.977l.28-.004h39.918zm-9.98 19.96h-19.958v22.285c0 5.419-4.317 9.828-9.7 9.976l-.28.004h-22.85v19.961h22.85c5.419 0 9.829 4.318 9.976 9.697l.004.28v63.122h19.957v-63.122c0-5.416 4.318-9.825 9.701-9.973l.28-.004h22.85v-19.961h-22.85c-5.42 0-9.829-4.318-9.977-9.701l-.004-.28V94.449zm136.654 52.682c5.509 0 9.976 4.468 9.976 9.98 0 5.416-4.317 9.825-9.697 9.973l-.28.004h-23.843c-5.513 0-9.98-4.468-9.98-9.976 0-5.42 4.317-9.83 9.7-9.977l.28-.004h23.844zm-269.383 0c5.512 0 9.98 4.468 9.98 9.98 0 5.416-4.317 9.825-9.7 9.973l-.28.004h-23.88c-5.512 0-9.98-4.468-9.98-9.976 0-5.42 4.318-9.83 9.701-9.977l.28-.004h23.879zM369.706 42.877c3.828 3.828 3.898 9.99.21 13.898l-.21.215-35.095 35.1a9.96 9.96 0 01-7.057 2.92 9.944 9.944 0 01-7.056-2.92c-3.828-3.828-3.897-9.99-.209-13.899l.209-.215 35.095-35.099c3.899-3.895 10.215-3.895 14.113 0zm-223.719-9.366l.215.208 29.532 29.536a9.977 9.977 0 010 14.113 9.948 9.948 0 01-7.056 2.924 9.946 9.946 0 01-6.8-2.675l-.257-.249-29.536-29.532c-3.894-3.899-3.894-10.218 0-14.117 3.828-3.824 9.99-3.893 13.902-.208zM255.477.499c5.415 0 9.825 4.318 9.972 9.701l.004.28v23.84c0 5.512-4.468 9.98-9.976 9.98-5.42 0-9.829-4.318-9.977-9.701l-.004-.28V10.48c0-5.512 4.468-9.98 9.98-9.98zm131.11 15.528a10.07 10.07 0 017.057 2.913 10.101 10.101 0 012.924 7.068c0 2.623-1.068 5.189-2.924 7.052a10.056 10.056 0 01-7.057 2.916c-2.635 0-5.2-1.056-7.056-2.916a10.015 10.015 0 01-2.924-7.052c0-2.636 1.056-5.201 2.924-7.068a10.028 10.028 0 017.056-2.913z"/>
</svg>
