<svg viewBox="0 0 404 512" xmlns="http://www.w3.org/2000/svg">
  <path fill="#9a9a9d" d="M73.332 422H394v78H73.332z"/>
  <path fill="#d7d7e0" d="M271.367 26.719A152.696 152.696 0 00242.668 24c-83.95 0-152 68.055-152 152v246H354V162c0-58.957-33.566-110.074-82.633-135.281z"/>
  <path fill="#151515" d="M202 0c88.435 0 160.545 71.226 161.978 159.325L364 162v250h30c5.43 0 9.848 4.326 10 9.72V502c0 5.43-4.326 9.848-9.72 10H10c-5.43 0-9.848-4.326-10-9.72V422c0-5.43 4.326-9.848 9.72-9.996L10 412h30v-31.188c0-5.523 4.477-10 10-10 5.43 0 9.848 4.327 9.996 9.72l.004.28V412h284V162c0-78.3-63.7-142-142-142-77.518 0-140.725 62.432-141.98 139.655L60 162v134.75c0 5.523-4.477 10-10 10-5.43 0-9.848-4.326-9.996-9.72l-.004-.28V162C40 72.672 112.672 0 202 0zm182 432H20v60h364v-60zM50 329c2.629 0 5.21 1.07 7.07 2.93A10.08 10.08 0 0160 339c0 2.629-1.07 5.21-2.93 7.07A10.08 10.08 0 0150 349a10.08 10.08 0 01-7.07-2.93A10.08 10.08 0 0140 339c0-2.629 1.07-5.21 2.93-7.07A10.08 10.08 0 0150 329zm119 0h66c5.523 0 10 4.477 10 10 0 5.43-4.326 9.848-9.72 9.996L235 349h-66c-5.523 0-10-4.477-10-10 0-5.43 4.326-9.848 9.72-9.996L169 329h66-66zm74.668-56c5.523 0 10 4.477 10 10 0 5.43-4.326 9.848-9.72 9.996l-.28.004H118c-5.523 0-10-4.477-10-10 0-5.43 4.326-9.848 9.72-9.996L118 273h125.668zM286 273c2.629 0 5.21 1.07 7.07 2.93A10.08 10.08 0 01296 283c0 2.629-1.07 5.21-2.93 7.07A10.08 10.08 0 01286 293a10.08 10.08 0 01-7.07-2.93A10.08 10.08 0 01276 283c0-2.629 1.07-5.21 2.93-7.07A10.08 10.08 0 01286 273zm0-56c5.523 0 10 4.477 10 10 0 5.43-4.326 9.848-9.72 9.996L286 237H118c-5.523 0-10-4.477-10-10 0-5.43 4.326-9.848 9.72-9.996L118 217h168zM202 54c5.43 0 9.848 4.326 9.996 9.72L212 64v22h23c5.523 0 10 4.477 10 10 0 5.43-4.326 9.848-9.72 9.996L235 106h-23v63c0 5.523-4.477 10-10 10-5.43 0-9.848-4.326-9.996-9.72L192 169v-63h-23c-5.523 0-10-4.477-10-10 0-5.43 4.326-9.848 9.72-9.996L169 86h23V64c0-5.523 4.477-10 10-10z"/>
</svg>
