<svg viewBox="0 0 512 512" xmlns="http://www.w3.org/2000/svg">
  <path fill="#d7d7e0" d="M161.445 161.262a23.043 23.043 0 011.583 7.743l.007.573v33.203c.848-12.25 11.149-21.89 23.672-21.644a22.79 22.79 0 01.318 3.14l.01.637 21.031 11.652a24.047 24.047 0 011.447 7.647l.007.572v51.168c.835-12.098 10.89-21.66 23.199-21.66l.4.007.4.016 21.122 15.41a23.236 23.236 0 011.356 7.303l.007.55v100.55c0 30.01-11.826 58.801-32.89 80.144l-.641.645a55.353 55.353 0 00-16.266 38.556l-.004.64v23.874h-103v-8.543c0-14.494-5.687-28.4-15.82-38.741l-.45-.454-8.902-8.879a114.078 114.078 0 01-31.203-57.86l-.172-.855-12.191-61.824c-2.574-13.047 6.047-25.664 19.12-28.02a22.543 22.543 0 012.423-.304c.334.837.629 1.702.873 2.589l.174.669 6.172 25.175c.948 3.872 6.566 3.26 6.753-.612l.004-.2 17.243 16.144c.948 3.872 6.566 3.265 6.753-.612l.004-.2V220.113c0-11.644 8.407-21.816 19.942-23.422.414-.058.824-.101 1.234-.136a23.358 23.358 0 011.26 5.639l.048.587v-6.308c12.546-.422 22.936 9.092 23.972 21.274l.029.37V184.43c0-12.082 9.203-22.008 20.976-23.168zm187.523 41.519v-13.117c11.635.591 20.993 9.723 21.972 21.252l.029.37v-33.204c0-11.227 8.594-21.582 19.527-23.457a23.173 23.173 0 015.038 13.973l.005.496v33.687l.028-.365c.97-11.407 10.14-20.466 21.598-21.23l.37-.022 19.34 8.785a24.008 24.008 0 015.143 14.326l.005.502V324.13c0 3.983 5.602 4.726 6.706 1.005l.052-.193 6.172-25.175a24.676 24.676 0 018.683-13.5l.384-.297 32.644 3.93c4.204 5.182 6.216 12.084 4.963 19.15l-.084.451-12.191 61.824a114.12 114.12 0 01-30.76 58.097l-.615.618-8.907 8.879a55.348 55.348 0 00-16.262 38.556l-.003.64v23.874H327.8v-15.375a55.365 55.365 0 00-15.816-38.745l-.45-.454a114.07 114.07 0 01-33.527-79.876l-.004-.91v-100.55c0-11.562 8.426-21.148 19.476-22.969 2.742 3.459 4.545 7.7 4.968 12.345l.04.5v-13.099c11.63.596 20.989 9.704 21.972 21.23l.028.368v-51.168c0-11.492 8.196-21.543 19.5-23.344a23.187 23.187 0 014.941 12.345l.04.495v-13.117 13.117z"/>
  <path fill="#d28369" d="M256.004 162.496S338.27 109.32 338.27 59.473c0-9.703-2.704-18.75-7.352-26.387-6.656-3.668-14.242-5.754-22.3-5.754-13.634 0-25.93 5.95-34.618 15.477-8.684-9.528-20.98-15.477-34.613-15.477-26.317 0-47.653 22.152-47.653 49.473 0 20.894 14.453 42.367 31.243 60.27 17.535 15.405 33.027 25.421 33.027 25.421z"/>
  <path fill="#151515" d="M372.254 135.813c18.168 0 32.986 14.632 33.28 32.731l.005.55v4.77a33.073 33.073 0 0113.2-2.739c18.167 0 32.985 14.633 33.28 32.732l.004.55v79.132c7.528-9.184 19.664-14.113 32.04-11.926 9.015 1.59 16.835 6.625 22.011 14.176 5.076 7.41 6.978 16.31 5.376 25.126l-.098.519-12.192 61.824c-4.732 24.004-16.31 45.849-33.501 63.233l-.624.626-8.902 8.88c-8.453 8.429-13.172 19.602-13.324 31.52l-.004.596v23.875c0 5.52-4.477 10-10 10-5.43 0-9.848-4.33-9.996-9.72l-.004-.28v-23.875c0-17.27 6.648-33.51 18.739-45.806l.468-.471 8.902-8.879c14.503-14.464 24.33-32.678 28.454-52.722l.171-.848 12.191-61.82a13.693 13.693 0 00-2.156-10.47 13.676 13.676 0 00-8.984-5.788c-7.023-1.236-13.863 3.132-15.713 9.987l-.08.313-6.3 25.696c-.84 3.427-2.872 6.205-5.57 8l-.302.195-.156.11-24.332 14.867c-11.098 6.78-17.992 19.074-17.992 32.082 0 5.52-4.477 10-10 10-5.524 0-10-4.48-10-10 0-19.727 10.352-38.381 27.054-48.835l.508-.314 14.34-8.762-.015-.271-.009-.272V204.406c0-7.324-5.96-13.281-13.285-13.281-6.729 0-12.304 5.03-13.162 11.53l-.037.31v53.031c0 5.52-4.48 9.996-10 9.996-5.43 0-9.848-4.326-9.996-9.716l-.004-.28v-86.902c0-7.324-5.96-13.281-13.285-13.281-7.221 0-13.117 5.79-13.282 12.972l-.003.309v123.46c0 5.524-4.477 10-10 10-5.426 0-9.844-4.325-9.993-9.72l-.003-.28v-89.59c-.723-6.648-6.368-11.839-13.203-11.839-7.222 0-13.117 5.79-13.282 12.973l-.004.308.082 88.149c0 5.52-4.476 10-10 10-5.426 0-9.847-4.33-9.996-9.72l-.004-.28-.082-36.418c-.718-6.649-6.363-11.844-13.199-11.844-7.22 0-13.117 5.794-13.281 12.976l-.004.31v100.546c0 27.58 10.65 53.511 30.005 73.115l.589.592c12.23 12.195 19.033 28.37 19.204 45.614l.003.663v23.88c0 5.519-4.477 9.995-10 9.995-5.43 0-9.848-4.326-9.996-9.716l-.004-.28V478.11c0-11.937-4.58-23.168-12.909-31.69l-.42-.423c-11.398-11.367-20.308-24.558-26.472-38.914-6.03 14.05-14.692 26.985-25.745 38.186l-.724.728c-8.456 8.43-13.172 19.603-13.324 31.517l-.004.596v23.88c0 5.519-4.48 9.995-10 9.995-5.43 0-9.848-4.326-9.996-9.716l-.004-.28V478.11c0-17.267 6.649-33.51 18.74-45.806l.467-.471c19.53-19.475 30.372-45.325 30.587-72.872l.003-.835V257.578c0-7.324-5.957-13.285-13.281-13.285-6.73 0-12.304 5.03-13.166 11.53l-.037.31-.082 36.422c0 5.52-4.477 10-10 10-5.43 0-9.848-4.33-9.997-9.72l-.003-.28.082-88.149c0-7.324-5.957-13.281-13.282-13.281-6.733 0-12.304 5.03-13.165 11.53l-.038.31v89.59c0 5.523-4.476 10-10 10-5.43 0-9.848-4.326-9.996-9.72l-.004-.28V169.094c0-7.324-5.957-13.281-13.281-13.281-7.225 0-13.117 5.79-13.282 12.972l-.003.309v123.46c0 5.524-4.477 10-10 10-5.43 0-9.848-4.325-9.996-9.72l-.004-.28v-89.59c-.723-6.648-6.363-11.839-13.203-11.839-7.221 0-13.113 5.79-13.278 12.973l-.004.308v119.7l-.008.272-.015.27 14.336 8.762c17.004 10.395 27.566 29.227 27.566 49.149 0 5.523-4.476 10-10 10-5.523 0-10-4.477-10-10 0-12.842-6.723-24.994-17.581-31.826l-.415-.256-24.046-14.696-.087-.054-.195-.118a.474.474 0 01-.055-.039c-2.798-1.716-4.941-4.466-5.88-7.895l-.096-.37-6.297-25.696c-1.727-7.03-8.66-11.554-15.797-10.3a13.7 13.7 0 00-8.984 5.789 13.668 13.668 0 00-2.222 10.089l.07.38L32.46 369.39c3.964 20.095 13.644 38.387 28.015 52.953l.61.613 8.906 8.879c12.23 12.195 19.034 28.37 19.204 45.614l.003.663v23.875c0 5.524-4.476 10-10 10-5.43 0-9.848-4.326-9.996-9.72l-.004-.28v-23.875c0-11.941-4.58-23.169-12.912-31.693l-.42-.424-8.902-8.875c-17.323-17.276-29.05-39.041-33.951-62.996l-.174-.867L.648 311.434c-1.77-8.985.106-18.09 5.282-25.645 5.175-7.55 12.992-12.586 22.008-14.176 12.218-2.155 24.2 2.616 31.747 11.57l.295.356V204.41c0-18.351 14.93-33.285 33.282-33.285 4.487 0 8.764.897 12.672 2.513l.53.225v-4.765c0-18.352 14.93-33.286 33.286-33.286 18.168 0 32.982 14.633 33.277 32.736l.004.55v4.765a33.078 33.078 0 0113.203-2.738c18.168 0 32.983 14.633 33.277 32.736l.005.55v22.62a33.075 33.075 0 0113.203-2.734c9.054 0 17.277 3.64 23.281 9.531 6.008-5.89 14.227-9.531 23.285-9.531 4.484 0 8.764.897 12.67 2.51l.53.224v-22.625c0-18.351 14.933-33.281 33.285-33.281 4.483 0 8.763.897 12.672 2.513l.53.225v-4.77c0-18.35 14.93-33.28 33.282-33.28zm23.285 146.742c2.629 0 5.211 1.07 7.07 2.93a10.073 10.073 0 012.93 7.07 10.07 10.07 0 01-2.93 7.066 10.083 10.083 0 01-7.07 2.934c-2.629 0-5.21-1.07-7.07-2.934a10.07 10.07 0 01-2.93-7.066c0-2.633 1.07-5.211 2.93-7.07a10.08 10.08 0 017.07-2.93zM290.621 0c31.785 0 57.649 26.68 57.649 59.473 0 23.523-14.887 49.582-44.25 77.457l-1.26 1.188c-20.561 19.283-40.473 32.225-41.33 32.777a9.999 9.999 0 01-10.543.194l-.68-.434c-2.991-1.962-22.483-14.984-42.223-33.725-29.363-27.875-44.25-53.934-44.25-77.457C163.734 26.68 189.598 0 221.387 0c12.515 0 24.699 4.266 34.617 11.926C265.922 4.266 278.105 0 290.62 0zM63.277 127.902c5.43 0 9.848 4.326 9.997 9.72l.003.28v12.43c0 5.52-4.476 9.996-10 9.996-5.43 0-9.848-4.326-9.996-9.716l-.004-.28v-12.43c0-5.523 4.477-10 10-10zM290.621 20c-10.379 0-20.05 4.336-27.226 12.215a10.001 10.001 0 01-14.782 0C241.433 24.335 231.766 20 221.387 20c-20.762 0-37.653 17.707-37.653 39.473 0 33.683 47.953 74.039 72.266 90.968 24.309-16.953 72.27-57.347 72.27-90.968C328.27 37.707 311.383 20 290.62 20zM86.848 104.332h12.43c5.523 0 10 4.477 10 10 0 5.426-4.327 9.848-9.72 9.996l-.28.004h-12.43c-5.524 0-10-4.48-10-10 0-5.43 4.326-9.848 9.72-9.996l.28-.004zm-59.567 0h12.43c5.52 0 9.996 4.477 9.996 10 0 5.426-4.326 9.848-9.716 9.996l-.28.004H27.28c-5.523 0-10-4.48-10-10 0-5.43 4.326-9.848 9.72-9.996l.28-.004h12.43-12.43zM447.996 77.57c5.43 0 9.848 4.326 9.996 9.72l.004.28V100c0 5.52-4.476 10-10 10-5.43 0-9.848-4.33-9.996-9.72l-.004-.28V87.57c0-5.523 4.477-10 10-10zM63.277 68.332c5.43 0 9.848 4.326 9.997 9.72l.003.28v12.43c0 5.523-4.476 10-10 10-5.43 0-9.848-4.326-9.996-9.72l-.004-.28v-12.43c0-5.523 4.477-10 10-10zM483.997 54c5.523 0 10 4.477 10 10 0 5.426-4.327 9.848-9.721 9.996l-.28.004h-12.43c-5.523 0-10-4.48-10-10 0-5.43 4.327-9.848 9.72-9.996l.28-.004h12.43zm-59.571 0c5.523 0 10 4.477 10 10 0 5.426-4.326 9.848-9.72 9.996l-.28.004h-12.43c-5.52 0-9.996-4.48-9.996-10 0-5.43 4.326-9.848 9.716-9.996l.28-.004h12.43zm23.57-36c5.43 0 9.848 4.33 9.996 9.72l.004.28v12.43c0 5.523-4.476 10-10 10-5.43 0-9.848-4.326-9.996-9.72l-.004-.28V28c0-5.52 4.477-10 10-10z"/>
</svg>
