<svg viewBox="0 0 404 512" xmlns="http://www.w3.org/2000/svg">
  <path fill="#d28369" d="M53 468.555h341V36H97c-24.3 0-44 19.7-44 44v388.555z"/>
  <path fill="#fff" d="M394 414.055H53.973C29.688 414.055 10 433.742 10 458.027 10 482.313 29.688 502 53.973 502H394v-87.945zM283.516 141.04h-57.743v-39.52l21.497-21.493h-90.54l21.497 21.493v39.52h-57.743l-21.496-21.493v90.535l21.496-21.492h57.743V322.53l-21.497 21.496h90.54l-21.497-21.496V188.59h57.743l21.496 21.492v-90.535z"/>
  <path fill="#151515" d="M394 0c5.43 0 9.848 4.326 10 9.72V502c0 5.43-4.326 9.848-9.72 10H53.973C24.509 512 .485 488.27.007 458.919L0 458.027V265.75c0-5.523 4.477-10 10-10 5.43 0 9.848 4.326 9.996 9.72l.004.28v150.379c9.125-7.413 20.699-11.917 33.308-12.07l.665-.004H336v-86c0-5.524 4.477-10 10-10 5.43 0 9.848 4.326 9.996 9.72l.004.28v86h28V20H53.973c-18.547 0-33.668 14.935-33.968 33.412l-.005.56v124.52c0 5.524-4.477 10-10 10-5.43 0-9.848-4.326-10-9.72v-124.8C0 24.51 23.73.486 53.081.008L53.973 0H394zm-10 424.055H53.973C35.238 424.055 20 439.297 20 458.027c0 18.547 14.935 33.668 33.412 33.968l.56.005H384v-67.945zM247.27 70.027a9.992 9.992 0 019.238 6.172 9.996 9.996 0 01-1.948 10.676l-.216.223-18.567 18.562v25.38h43.602l18.562-18.567a10.006 10.006 0 0110.899-2.168 10 10 0 016.171 8.943l.005.295v90.539a10 10 0 01-6.176 9.238 10.005 10.005 0 01-10.676-1.952l-.223-.216-18.562-18.562h-43.602v119.805l18.567 18.566a9.995 9.995 0 012.164 10.894 9.996 9.996 0 01-8.943 6.168l-.295.004h-90.536a9.998 9.998 0 01-7.29-16.844l.216-.222 18.567-18.566V198.59h-43.602l-18.566 18.566a9.995 9.995 0 01-10.899 2.164 9.998 9.998 0 01-6.167-8.943l-.005-.295v-90.535a9.998 9.998 0 016.172-9.238 9.989 9.989 0 0110.676 1.951l.223.217 18.566 18.562h43.602V105.66L149.66 87.098a10.004 10.004 0 01-2.168-10.899 10.008 10.008 0 018.947-6.167l.295-.005h90.536zm-24.141 20h-42.254l4.422 4.422a10.009 10.009 0 012.924 6.743l.006.331v39.516c0 5.43-4.327 9.848-9.72 9.996l-.28.004h-57.743a10 10 0 01-6.832-2.7l-.238-.23-4.426-4.422v42.254l4.426-4.425a9.995 9.995 0 016.74-2.92l.33-.006h57.743c5.43 0 9.848 4.326 9.996 9.72l.004.28V322.53a10.01 10.01 0 01-2.7 6.837l-.23.237-4.422 4.422h42.254l-4.426-4.422a10.009 10.009 0 01-2.924-6.743l-.006-.33V188.59c0-5.43 4.33-9.848 9.72-9.996l.28-.004h57.747c2.541 0 4.983.965 6.832 2.696l.238.23 4.422 4.425v-42.254l-4.422 4.422a10 10 0 01-6.74 2.925l-.33.005h-57.747c-5.426 0-9.847-4.326-9.996-9.72l-.004-.28v-39.516c0-2.541.97-4.986 2.7-6.836l.23-.238 4.426-4.422zM346 264.79c2.629 0 5.21 1.063 7.07 2.922a10.087 10.087 0 012.93 7.07c0 2.64-1.07 5.207-2.93 7.07a10.046 10.046 0 01-7.07 2.93c-2.629 0-5.21-1.062-7.07-2.93a10.066 10.066 0 01-2.93-7.07c0-2.633 1.07-5.203 2.93-7.07a10.072 10.072 0 017.07-2.922zM10 216.512a10.03 10.03 0 017.07 2.93c1.86 1.859 2.93 4.43 2.93 7.07a10.07 10.07 0 01-2.93 7.066 10.067 10.067 0 01-7.07 2.934c-2.629 0-5.21-1.07-7.07-2.934A10.07 10.07 0 010 226.512c0-2.64 1.07-5.211 2.93-7.07a10.03 10.03 0 017.07-2.93z"/>
</svg>
