<svg viewBox="0 0 512 512" xmlns="http://www.w3.org/2000/svg">
  <path fill="#B6B6BB" d="M51 89v411h123V91l-62.512-61.75z"/>
  <path fill="#D7D7E0" d="M110 27.781L46 91v52.75h128V91zM43.5 292v207H174V318l-81-78z"/>
  <path fill="#B6B6BB" d="M132 502H52V402c0-22.09 17.91-40 40-40s40 17.91 40 40v100zM380 92v410h122V91l-60.492-59.758z"/>
  <path fill="#D7D7E0" d="M377 92v51.75h125V91l-61.992-61.238zM371 288.5V502h131V318l-81.5-81.5z"/>
  <path fill="#B6B6BB" d="M460 502h-80V402c0-22.09 17.91-40 40-40s40 17.91 40 40v100zM274 109.781L210 173v329h128V173z"/>
  <path fill="#D7D7E0" d="M207.5 285.5L207 499h131V318l-84-80z"/>
  <path fill="#B6B6BB" d="M296 502h-80V402c0-22.09 17.91-40 40-40s40 17.91 40 40v100z"/>
  <path fill="#FFF" d="M110 92c0 9.941-8.059 18-18 18s-18-8.059-18-18 8.059-18 18-18 18 8.059 18 18zM274 177.063c0 9.94-8.059 18-18 18s-18-8.06-18-18c0-9.942 8.059-18 18-18s18 8.058 18 18z"/>
  <path fill="#000" d="M92 120c15.438 0 28-12.563 28-28 0-15.438-12.563-28-28-28-15.438 0-28 12.563-28 28 0 15.438 12.563 28 28 28zm0-36c4.41 0 8 3.59 8 8s-3.59 8-8 8-8-3.59-8-8 3.59-8 8-8zM228 177.063c0 15.44 12.563 28 28 28 15.438 0 28-12.56 28-28 0-15.438-12.563-28-28-28-15.438 0-28 12.562-28 28zm36 0c0 4.41-3.59 8-8 8s-8-3.59-8-8 3.59-8 8-8 8 3.59 8 8z"/>
  <path fill="#000" d="M509.027 83.887l-82-81c-3.894-3.848-10.16-3.848-14.054 0l-82 81A10 10 0 00328 91v53.566L266 83.32V45h13c5.523 0 10-4.477 10-10s-4.477-10-10-10h-13V10c0-5.523-4.477-10-10-10s-10 4.477-10 10v15h-13c-5.523 0-10 4.477-10 10s4.477 10 10 10h13v38.32l-62 61.246V91a10 10 0 00-2.973-7.113l-82-81c-3.894-3.848-10.16-3.848-14.054 0l-82 81A10 10 0 000 91v411c0 5.523 4.477 10 10 10h492c5.523 0 10-4.477 10-10V250c0-5.523-4.477-10-10-10s-10 4.477-10 10v44.066l-64.973-64.18c-3.894-3.847-10.16-3.847-14.054 0L348 294.067V155h144v18c0 5.523 4.477 10 10 10s10-4.477 10-10V91a10 10 0 00-2.973-7.113zM328 294.067l-64.973-64.18c-3.894-3.848-10.16-3.848-14.054 0L184 294.067V172.68l72-71.125 72 71.125v121.386zM20 155h144v139.066l-64.973-64.18c-3.894-3.847-10.16-3.847-14.054 0L20 294.067V155zM92 24.055l72 71.125V135H20V95.18l72-71.125zM20 322.18l72-71.125 72 71.125V492h-22v-90c0-27.57-22.43-50-50-50s-50 22.43-50 50v90H20V322.18zM62 492v-90c0-16.543 13.457-30 30-30s30 13.457 30 30v90H62zm122-169.82l72-71.125 72 71.125V492h-22v-90c0-27.57-22.43-50-50-50s-50 22.43-50 50v90h-22V322.18zM226 492v-90c0-16.543 13.457-30 30-30s30 13.457 30 30v90h-60zm164 0v-90c0-16.543 13.457-30 30-30s30 13.457 30 30v90h-60zm30-240.945l72 71.125V492h-22v-90c0-27.57-22.43-50-50-50s-50 22.43-50 50v90h-22V322.18l72-71.125zM348 135V95.18l72-71.125 72 71.125V135H348z"/>
  <path fill="#000" d="M502 199a10.08 10.08 0 00-7.07 2.93A10.08 10.08 0 00492 209c0 2.629 1.07 5.21 2.93 7.07A10.08 10.08 0 00502 219c2.629 0 5.21-1.07 7.07-2.93A10.08 10.08 0 00512 209c0-2.629-1.07-5.21-2.93-7.07A10.08 10.08 0 00502 199zM420 64c-15.438 0-28 12.563-28 28 0 15.438 12.563 28 28 28 15.438 0 28-12.563 28-28 0-15.438-12.563-28-28-28zm0 36c-4.41 0-8-3.59-8-8s3.59-8 8-8 8 3.59 8 8-3.59 8-8 8z"/>
</svg>
