<svg viewBox="0 0 512 512" xmlns="http://www.w3.org/2000/svg">
  <path fill="#abb7db" d="M441.508 31.242L502 91v411H380V92l61.508-60.758zM274 109.782L338 173v329H210V173l64-63.219zM111.488 29.25L174 91v409H51V89l60.488-59.75z"/>
  <path fill="#c8cfe8" d="M420.5 236.5L502 318v184h-42V402c0-22.09-17.91-40-40-40-21.869 0-39.641 17.554-39.995 39.339L380 402v100h-9V288.5l49.5-52zM93 240l81 78v181h-42v-97c0-21.869-17.554-39.641-39.339-39.995L92 362c-21.869 0-39.641 17.554-39.995 39.339L52 402v97h-8.5V292L93 240zm161-2l84 80v181h-42v-97c0-21.869-17.554-39.641-39.339-39.995L256 362c-21.869 0-39.641 17.554-39.995 39.339L216 402v97h-9l.5-213.5L254 238zM110 27.781L174 91v52.75H46V91l64-63.219zm330.008 1.98L502 91v52.75H377V92l63.008-62.238z"/>
  <path fill="#fff" d="M256 159.063c9.941 0 18 8.058 18 18 0 9.94-8.059 18-18 18s-18-8.06-18-18c0-9.942 8.059-18 18-18zM92 74c9.941 0 18 8.059 18 18s-8.059 18-18 18-18-8.059-18-18 8.059-18 18-18z"/>
  <path fill="#151515" d="M426.809 2.677l.218.21 82 81a10 10 0 012.967 6.78L512 91v82c0 5.523-4.477 10-10 10-5.43 0-9.848-4.326-9.996-9.72L492 173v-18H348v139.066l64.973-64.18c3.822-3.776 9.929-3.846 13.836-.21l.218.21L492 294.067V250c0-5.523 4.477-10 10-10 5.43 0 9.848 4.326 10 9.72V502c0 5.43-4.326 9.848-9.72 10H10c-5.43 0-9.848-4.326-10-9.72V91a10 10 0 012.74-6.875l.233-.238 82-81c3.822-3.777 9.929-3.847 13.836-.21l.218.21 82 81a10 10 0 012.967 6.78L184 91v53.566l62-61.246V45h-13c-5.523 0-10-4.477-10-10 0-5.43 4.326-9.848 9.72-9.996L233 25h13V10c0-5.523 4.477-10 10-10 5.43 0 9.848 4.326 9.996 9.72L266 10v15h13c5.523 0 10 4.477 10 10 0 5.43-4.326 9.848-9.72 9.996L279 45h-13v38.32l62 61.246V91a10 10 0 012.74-6.875l.233-.238 82-81c3.822-3.777 9.929-3.847 13.836-.21zM92 251.055L20 322.18V492h22v-90c0-27.57 22.43-50 50-50 27.295 0 49.55 21.983 49.993 49.174L142 402v90h22V322.18l-72-71.125zM92 372c-16.378 0-29.73 13.19-29.996 29.505L62 402v90h60v-90c0-16.543-13.457-30-30-30zm164-120.945l-72 71.125V492h22v-90c0-27.57 22.43-50 50-50 27.295 0 49.55 21.983 49.993 49.174L306 402v90h22V322.18l-72-71.125zM256 372c-16.378 0-29.73 13.19-29.996 29.505L226 402v90h60v-90c0-16.543-13.457-30-30-30zm164 0c-16.378 0-29.73 13.19-29.996 29.505L390 402v90h60v-90c0-16.543-13.457-30-30-30zm0-120.945l-72 71.125V492h22v-90c0-27.57 22.43-50 50-50 27.295 0 49.55 21.983 49.993 49.174L470 402v90h22V322.18l-72-71.125zm-164-149.5l-72 71.125v121.386l64.973-64.18c3.822-3.776 9.929-3.846 13.836-.21l.218.21L328 294.067V172.68l-72-71.125zM164 155H20v139.066l64.973-64.18c3.822-3.776 9.929-3.846 13.836-.21l.218.21L164 294.067V155zm338 44c2.629 0 5.21 1.07 7.07 2.93A10.08 10.08 0 01512 209c0 2.629-1.07 5.21-2.93 7.07A10.08 10.08 0 01502 219a10.08 10.08 0 01-7.07-2.93A10.08 10.08 0 01492 209c0-2.629 1.07-5.21 2.93-7.07A10.08 10.08 0 01502 199zm-246-49.938c15.438 0 28 12.563 28 28 0 15.442-12.563 28-28 28-15.438 0-28-12.558-28-28 0-15.437 12.563-28 28-28zm0 20c-4.41 0-8 3.59-8 8s3.59 8 8 8 8-3.59 8-8-3.59-8-8-8zM92 24.055L20 95.18V135h144V95.18L92 24.055zm328 0L348 95.18V135h144V95.18l-72-71.125zM92 64c15.438 0 28 12.563 28 28 0 15.438-12.563 28-28 28-15.438 0-28-12.563-28-28 0-15.438 12.563-28 28-28zm328 0c15.438 0 28 12.563 28 28 0 15.438-12.563 28-28 28-15.438 0-28-12.563-28-28 0-15.438 12.563-28 28-28zM92 84c-4.41 0-8 3.59-8 8s3.59 8 8 8 8-3.59 8-8-3.59-8-8-8zm328 0c-4.41 0-8 3.59-8 8s3.59 8 8 8 8-3.59 8-8-3.59-8-8-8z"/>
</svg>
