<svg viewBox="0 0 341 199" xmlns="http://www.w3.org/2000/svg">
  <path fill="#4a4a4d" d="M30.465 150.934V199h-7.638v-42.409l7.638-5.657zm20.26-67.454l163.21 44.992-3.766 4.53-20.865-5.726c-28.806-7.882-79.745-21.737-102.24-27.335l-1.892-.468v21.908c-2.179-1.463-5.05-2.442-8.563-2.787l-.046-21.384-.732-.281c-4.257-1.601-11.65-3.836-17.015-5.404l-6.514-1.868-21.837 19.614v31.388l-13.46 15.517.095 38.664h-4.097v-22.296l-4.731 4.15v14.617H5.24v-11.973l-3.276 2.854L0 180.054l12.881-11.371v-8.806l9.946-13.84v-37.576L50.725 83.48zm156.058 94.8c.76 0 1.495.108 2.204.324.71.215 1.35.576 1.92 1.083l-2.034 2.224a2.11 2.11 0 0 0-.978-.675 3.506 3.506 0 0 0-1.169-.218 3.06 3.06 0 0 0-.665.076c-.228.05-.443.13-.646.237-.202.108-.367.25-.494.428-.126.178-.19.393-.19.646 0 .406.152.716.456.932.304.215.687.399 1.15.551.462.152.96.304 1.491.456.532.152 1.03.368 1.492.646.462.28.845.653 1.15 1.122.303.469.455 1.096.455 1.882 0 .747-.139 1.4-.418 1.958a3.973 3.973 0 0 1-1.13 1.387 4.81 4.81 0 0 1-1.653.817 7.26 7.26 0 0 1-1.986.267 7.2 7.2 0 0 1-2.432-.4c-.747-.266-1.444-.697-2.09-1.292l2.11-2.32c.303.406.686.72 1.149.942.462.222.94.332 1.434.332.241 0 .485-.028.732-.085.247-.057.468-.143.665-.257.196-.114.354-.26.475-.437.12-.177.18-.386.18-.627 0-.406-.155-.726-.465-.96a4.29 4.29 0 0 0-1.169-.599c-.468-.165-.975-.33-1.52-.494a6.824 6.824 0 0 1-1.52-.665 3.664 3.664 0 0 1-1.168-1.103c-.31-.456-.466-1.058-.466-1.806 0-.722.143-1.355.428-1.9a4.123 4.123 0 0 1 1.14-1.369 4.955 4.955 0 0 1 1.643-.827 6.725 6.725 0 0 1 1.92-.275zm70.24.343v8.154c0 .418.067.805.2 1.16.133.355.32.662.56.922.241.26.53.462.865.608.336.146.7.218 1.093.218.392 0 .753-.072 1.083-.218a2.57 2.57 0 0 0 .855-.608c.24-.26.427-.567.56-.922.133-.355.2-.742.2-1.16v-8.154h2.964v8.268c0 .799-.12 1.534-.361 2.205a4.852 4.852 0 0 1-1.074 1.749c-.475.494-1.067.88-1.776 1.16-.71.278-1.527.418-2.451.418-.938 0-1.761-.14-2.47-.419-.71-.278-1.302-.665-1.777-1.16a4.852 4.852 0 0 1-1.073-1.748 6.493 6.493 0 0 1-.361-2.205v-8.268h2.964zm36.75-.342c.38 0 .775.035 1.187.104.411.07.817.18 1.216.333.399.152.782.355 1.15.608.367.254.696.564.987.931l-2.28 1.863a2.907 2.907 0 0 0-1.073-.817c-.425-.19-.915-.285-1.473-.285-.557 0-1.073.108-1.548.323a3.705 3.705 0 0 0-1.235.903c-.349.386-.62.846-.817 1.378a4.96 4.96 0 0 0-.295 1.73c0 .633.098 1.213.295 1.739.196.526.465.982.807 1.368a3.66 3.66 0 0 0 1.207.903c.462.216.96.323 1.491.323.608 0 1.147-.126 1.615-.38a3.215 3.215 0 0 0 1.16-1.064l2.47 1.844a5.144 5.144 0 0 1-2.167 1.767 6.7 6.7 0 0 1-2.698.57c-1.051 0-2.02-.164-2.907-.494a6.654 6.654 0 0 1-2.299-1.416 6.42 6.42 0 0 1-1.51-2.233c-.361-.875-.542-1.85-.542-2.927 0-1.078.18-2.053.542-2.928a6.42 6.42 0 0 1 1.51-2.233 6.654 6.654 0 0 1 2.3-1.416c.886-.33 1.855-.494 2.906-.494zm-67.4 0c.38 0 .777.035 1.188.104.412.07.817.18 1.216.333.4.152.783.355 1.15.608.367.254.697.564.988.931l-2.28 1.863a2.907 2.907 0 0 0-1.074-.817c-.424-.19-.915-.285-1.472-.285-.557 0-1.074.108-1.549.323a3.705 3.705 0 0 0-1.235.903c-.348.386-.62.846-.817 1.378a4.96 4.96 0 0 0-.294 1.73c0 .633.098 1.213.294 1.739.197.526.466.982.808 1.368a3.66 3.66 0 0 0 1.206.903c.463.216.96.323 1.492.323.608 0 1.146-.126 1.615-.38a3.215 3.215 0 0 0 1.159-1.064l2.47 1.844a5.144 5.144 0 0 1-2.166 1.767 6.7 6.7 0 0 1-2.698.57c-1.051 0-2.02-.164-2.907-.494a6.654 6.654 0 0 1-2.3-1.416 6.42 6.42 0 0 1-1.51-2.233c-.36-.875-.541-1.85-.541-2.927 0-1.078.18-2.053.541-2.928a6.42 6.42 0 0 1 1.51-2.233 6.654 6.654 0 0 1 2.3-1.416c.887-.33 1.856-.494 2.907-.494zm-93.422.342l5.852 13.457h-3.344l-1.16-2.85h-5.224l-1.121 2.85h-3.268l5.814-13.457h2.45zm43.181 0v13.457h-2.964v-13.457h2.964zm130.476 0v5.018h5.757v-5.018h2.964v13.457h-2.964v-5.816h-5.757v5.816h-2.964v-13.457h2.964zm-29.87 0c.683 0 1.333.066 1.947.2a4.62 4.62 0 0 1 1.615.665c.462.31.83.728 1.102 1.254.272.526.408 1.182.408 1.968 0 .95-.247 1.758-.74 2.423-.495.665-1.217 1.087-2.167 1.264l3.42 5.683h-3.553l-2.812-5.379h-1.463v5.38h-2.964v-13.458h5.206zm-128.196 0c.696 0 1.355.063 1.976.19.62.127 1.162.345 1.624.656.463.31.83.728 1.102 1.254.273.526.409 1.188.409 1.987 0 .785-.127 1.444-.38 1.976a3.242 3.242 0 0 1-1.045 1.274 4.235 4.235 0 0 1-1.577.675 9.24 9.24 0 0 1-1.976.2h-2.166v5.245h-2.964v-13.457h4.997zm19.77 0v2.623h-3.837v10.834h-2.964v-10.834h-3.838v-2.623h10.64zm37.615 0v2.623h-3.838v10.834h-2.964v-10.834h-3.838v-2.623h10.64zm-90.543 0c.583 0 1.168.041 1.758.123a4.8 4.8 0 0 1 1.586.495c.469.247.849.592 1.14 1.035.291.444.437 1.033.437 1.768 0 .76-.212 1.391-.637 1.892-.424.5-.984.858-1.681 1.073v.038c.443.064.845.187 1.207.371.36.184.67.418.93.703.26.286.46.618.599.998.14.38.209.786.209 1.217 0 .71-.152 1.302-.456 1.777a3.586 3.586 0 0 1-1.178 1.15c-.481.292-1.023.5-1.625.627-.601.127-1.2.19-1.795.19h-5.51v-13.457h5.016zm123.826 0v5.018h5.757v-5.018h2.964v13.457h-2.964v-5.816h-5.757v5.816h-2.964v-13.457h2.964zm-123.636 7.888h-2.242v3.06h2.66c.228 0 .46-.025.694-.076.234-.05.446-.139.636-.266.19-.126.345-.291.465-.494.12-.203.181-.45.181-.741 0-.317-.08-.574-.237-.77a1.506 1.506 0 0 0-.599-.447c-.24-.101-.5-.17-.779-.209a5.785 5.785 0 0 0-.779-.057zm16.066-3.973l-1.634 4.182h3.287l-1.653-4.182zm16.389-1.406h-1.52v3.193h1.976c.266 0 .522-.025.77-.076.246-.05.468-.136.664-.256.197-.12.355-.286.475-.495.12-.209.18-.472.18-.788 0-.343-.078-.618-.237-.827a1.58 1.58 0 0 0-.608-.485 2.602 2.602 0 0 0-.826-.219 8.441 8.441 0 0 0-.874-.047zm128.404 0h-1.938v3.06h1.748c.266 0 .548-.01.846-.028.298-.02.567-.076.807-.171.241-.095.44-.244.599-.447.158-.203.237-.488.237-.855 0-.343-.07-.615-.209-.818a1.393 1.393 0 0 0-.532-.466 2.36 2.36 0 0 0-.74-.218 6.042 6.042 0 0 0-.818-.057zm-161.087 0h-2.014v2.87h2.147c.228 0 .453-.025.674-.076.222-.05.422-.133.599-.247.177-.114.32-.266.427-.456.108-.19.162-.418.162-.685 0-.278-.06-.51-.18-.693a1.256 1.256 0 0 0-.466-.428 2.218 2.218 0 0 0-.646-.219 3.876 3.876 0 0 0-.703-.066zM64.189 0l2.792 72.897 3.638 1.209v11.916L56.83 82.264v-11.87l4.569 1.05L64.189 0z"/>
  <path fill="#7386c2" d="M147.866 126.67c.686 0 .686.273 1.125.273.328 0 .63.438.63.74 0 .438-2.358 3.97-2.769 4.654l1.577-.114c.37-.023.73-.042.993-.048l.144-.002c.658 0 1.289.027 1.508.11.592.246.807.87 1.283 1.311l.17.14c.274.219.466.383.466.794 0 1.046-1.249 1.492-2.078 1.602l-.115.014c-2.522.246-4.496.52-7.018.657l-.334.524c-2.417 3.846-9.746 16.451-10.111 19.055l-.062.467a4.95 4.95 0 0 0-.048.6c0 1.069.466 1.342 1.344 1.342 1.57 0 3.898-1.947 5.669-3.52 1.77-8.677 11.083-15.484 15.686-15.484 1.57 0 2.466.774 2.544 1.13l.006.048v.164c.32-.045.601-.053.814-.054h.118c1.289 0 2.824.848 2.824 2.875 0 5.531-9.897 18.73-17.792 18.73-2.027 0-3.57-1.212-4.192-2.878-1.865 1.521-4.287 3.18-6.555 3.18-.206 0-.396-.016-.582-.047l-.186-.036c-2.498-.465-3.915-1.554-4.19-4.297-4.766 3.788-8.627 7.375-13.327 12.43-.576.602-3.482 7.229-6.47 7.612-.274.027-.521.055-.768.055-1.864 0-2.522-1.123-2.522-2.547 0-1.26.494-2.765 1.152-3.997 2.302-4.327 6.25-7.34 6.853-8.188l.12-.187c.531-.866 1.69-3.16 3.992-7.508l-.535.582c-2.615 2.815-5.598 5.605-8.396 6.062l-.28.038h-.192c-.685 0-1.48-.274-2.165-.74-.404-.268-.648-.682-.793-1.119-1.426 1.018-3.047 1.804-4.58 1.804-2.852 0-4.086-2.273-4.086-4.573 0-.904.192-1.807.548-2.602-3.015 3.917-7.456 7.065-10.197 7.065-2.358 0-4.003-1.807-4.277-3.751a7.688 7.688 0 0 1-.11-1.37c0-8.132 10.308-16.758 16.394-16.758 2.11 0 3.29.822 3.591 1.725.905-1.396 1.344-1.506 2.468-1.506 1.151 0 2.083.438 2.083 1.424 0 .36-.105.782-.296 1.047l-.147.177c-.674.895-4.962 8.016-5.835 12.77a2.98 2.98 0 0 0-.082.766c0 .684.192 1.506.877 1.506 1.203 0 2.906-1.457 4.273-2.836.792-1.868 2.202-3.7 4.555-8.008 2.577-3.97 3.59-7.229 4.633-7.229.52 0 2.083.794 2.083 2.081 0 1.725-7.182 13.007-7.182 14.787 0 .164.082.219.22.219 1.43 0 9.61-7.353 13.683-13.278l1.127-1.682c.837-1.227 1.637-2.236 2.378-2.236.247 0 1.755.164 2.083.602.275.383.521.52.521.849 0 .194-.087.41-.279.802l-.077.156c-.466.904-8.58 14.185-11.843 20.92 3.865-3.258 8.142-7.12 11.733-10.377.031-.027.065-.038.097-.06 2.198-5.501 7.156-13.543 9.06-16.48l-.058.002c-.465.035-3.613.428-4.516.484l-.169.007h-.247c-.767 0-2.275-.274-2.275-1.342 0-.373.566-.724.813-1.196l.064-.146c.274-.848 2.522-2.053 3.427-2.135l1.179-.067 4.825-.207 1.187-1.727c.802-1.16 1.636-2.317 2.569-3.34l.145-.192c.216-.278.334-.355.814-.355.439 0 .85-.164 1.288-.164zm25.66 12.951c.604 0 .658.603.658 1.068 0 1.287-2.741 5.038-3.536 6.326l.574-.628c2.647-2.873 6.574-6.71 10.501-6.71 1.399 0 2.577.958 2.577 2.463 0 1.563-2.902 5.546-4.152 7.398l-.797 1.215c-1.226 1.89-3.412 5.375-3.412 6.969 0 .876.85 1.205 1.645 1.205 2.604 0 7.045-5.614 7.84-5.614.768 0 .714 1.972.714 2.464 0 .931-.33 1.835-1.29 2.41l-.612.558c-2 1.806-4.857 4.152-7.803 4.152-2.194-.055-4.606-1.753-4.606-4.436 0-3.26 2.626-7.532 4.852-10.85l.77-1.15c.392-.598.956-1.498 1.095-1.96l.026-.115-.054-.055c-1.398.108-8.571 7.617-10.14 9.326l-.086.094c-2.056 2.273-3.92 4.655-5.73 7.065-.383.493-1.068 1.178-1.726 1.178-.437 0-1.983-.602-2.445-.903l-.078-.056c-.191-.11-.191-.274-.191-.439 0-.903 1.041-2.354 1.644-3.367 2.358-4.108 4.77-8.133 7.183-12.158.795-1.315 1.453-2.684 2.413-3.889.932-1.177 2.714-1.56 4.166-1.56zM69.16 122.671c12.035 0 18.697 5.285 18.697 12.46 0 14.184-19.629 26.808-34.734 26.808l-.615-.005c-4.904-.077-4.357-1.089-5.28-1.72-.383-.247-.52-.904-.52-1.588 0-.713.137-1.452.22-1.78 1.26-4.546 15.214-24.235 18.367-28.506l.047-.051c.232-.202.975-.4 3.05-.552 1.509 0 2.03.164 2.03.794 0 .274-.16.593-.518 1.102l-.53.747c-3.749 5.372-17.266 26.208-17.266 26.602 0 .247.411.356 1.563.356 13.598 0 28.813-13.28 28.813-20.92 0-5.149-4.772-9.373-13.379-9.53-3.104-.056-6.203.823-9.103 1.847a83.177 83.177 0 0 0-11.525 5.092c-3.458 1.849-6.696 4.035-9.88 6.311l-3.155 2.268c-.764.545-1.532 1.087-2.306 1.62l-10.308 7.06-5.821 5.09-4.125 3.7-3.072 2.683-2.47-2.933 15.488-13.588 7.638-5.38c8.866-7.007 29.451-17.987 38.694-17.987zm168.547-2.939c.302 0 2.934 1.342 2.934 2.52 0 .102 0 .19-.023.284l-.032.099c-1.48 4.49-13.872 31.408-15.353 34.147l-.4.733c-1.194 2.154-2.33 3.851-4.409 3.97l-.235.007c-1.233 0-1.507.356-1.919.356-.685 0-.877-.164-.877-.411 0-.123.041-.26.096-.404l.198-.486c.276-.572 2.946-6.197 6.204-13.075l-5.957-.219c-1.746-.06-3.59-.117-5.366-.165a110.965 110.965 0 0 0-8.498 12.323c-.604 1.15-1.042 1.643-1.92 1.643-.959 0-2.44-1.041-2.44-2.41 0-1.862 2.852-6.353 7.073-11.72l-1.893.005c-.616.007-1.102.02-1.424.05-.904.082-1.562.274-2.028.274-.494 0-.74-.247-.74-1.178 0-1.623 1.862-3.116 5.11-3.2l.509-.009c.59-.021 1.766-.111 3.948-.16 7.348-8.625 17.052-18.017 23.796-21.413.494-.247.823-.383 1.124-.356.494 0 .795.274 1.18.685l.715-1.413c.238-.446.324-.477.627-.477zm44.631 17.99c.603 0 .658.604.658 1.07 0 1.286-2.741 5.038-3.536 6.324l.573-.627c2.647-2.872 6.575-6.711 10.502-6.711 1.399 0 2.577.958 2.577 2.464 0 1.563-2.903 5.546-4.152 7.398l-.797 1.215c-1.226 1.889-3.412 5.374-3.412 6.968 0 .876.85 1.205 1.645 1.205 1.444 0 3.451-1.726 5.09-3.264 1.161-3.225 3.259-6.65 4.212-8.307l1.456-2.552c1.707-2.968 2.6-4.278 3.799-4.278.96 0 1.864 1.232 1.864 1.78 0 .958-7.265 12.678-7.265 15.06 0 .274.082.411.302.411 1.946 0 11.76-11.309 12.693-13.117 1.068-2.108 2.22-3.614 2.686-3.915.412-.274 1.81-.794 3.043-.822.137 0 .302 0 .44.028.273.054.63.876.63 1.15l-.008.045-.767 1.456c-1.77 3.313-2.833 4.93-3.441 6.101l-.641 1.31c-1.035 2.143-2.71 5.779-2.71 7.627 0 .712.247 1.15.877 1.15 1.303 0 2.75-1.523 3.612-2.335 2.047-1.93 3.57-3.2 6.284-4.21-1.507-.684-1.644-1.752-1.644-3.203 0-5.395 9.102-9.256 13.762-9.256.96 0 2.769.494 2.769 1.67 0 2.438-2.358 4.546-4.797 4.546-.878 0-.988-.438-.988-1.232 0-.274.055-.493.11-.712a11.96 11.96 0 0 0-1.889.865l-.568.322c-1.164.686-4.45 2.904-4.45 3.852 0 .219.437.219.547.219 1.48 0 2.714-.904 4.112-.904.165 0 .384 0 .549.055.466.246 1.178 1.369 1.178 1.807 0 .465-.603.93-.96 1.232-.794.658-1.726.713-2.576 1.178l-1.033.585c-1.769 1.02-4.752 2.865-4.752 3.85 0 1.918 2.106 1.566 3.559 1.566 1.842 0 4.107-.948 5.655-1.78 3.199-1.717 6.31-3.6 9.4-5.503 1.274-.784 2.523-2.361 3.836-1.628.904.504.771 2.72 0 3.411-6.01 5.376-17.271 9.822-19.516 9.822-2.683 0-6.046-.69-7.158-3.17-1.703 1.551-3.997 3.06-6.11 3.06-1.646 0-4.004-.958-4.004-3.531 0-1.123.165-2.986 1.18-4.82l-.561.695c-2.721 3.337-6.854 7.821-10.104 7.821-1.682 0-2.827-1.155-3.244-2.487-1.672 1.25-3.62 2.323-5.61 2.323-2.194-.055-4.606-1.753-4.606-4.437 0-3.26 2.626-7.53 4.852-10.85l.668-.993c.388-.587 1.045-1.612 1.197-2.117l.027-.115-.055-.054c-1.398.107-8.572 7.617-10.14 9.326l-.086.093c-2.056 2.273-3.92 4.656-5.73 7.065-.383.493-1.069 1.178-1.727 1.178-.437 0-1.982-.602-2.444-.902l-.078-.056c-.192-.11-.192-.274-.192-.438 0-.057.015-.122.023-.182-2.306 1.416-5.087 2.591-8.055 2.591l-.396-.005c-3.202-.08-7.143-1.17-7.143-5.033 0-3.04 2.659-4.765 5.236-5.723-1.508-.685-1.645-1.753-1.645-3.204 0-5.395 9.102-9.256 13.762-9.256.96 0 2.77.494 2.77 1.67 0 2.438-2.359 4.546-4.798 4.546-.878 0-.987-.438-.987-1.232 0-.274.054-.493.11-.712-.663.228-1.288.532-1.89.865l-.568.322c-1.164.686-4.451 2.904-4.451 3.852 0 .219.438.219.548.219 1.48 0 2.714-.904 4.112-.904.165 0 .384 0 .549.055.466.246 1.179 1.369 1.179 1.807 0 .465-.604.93-.96 1.232-.795.658-1.727.713-2.577 1.178l-1.033.585c-1.769 1.02-4.752 2.865-4.752 3.85 0 1.918 2.194 2.137 3.647 2.137 2.636 0 5.008-1.546 7.04-3.067 1.48-1.107 3.793-2.384 4.824-3.913.537-.798.986-1.672 1.477-2.5l1.865-3.14c.313-.522.626-1.044.941-1.565.795-1.315 1.453-2.683 2.412-3.888.932-1.178 2.714-1.561 4.167-1.561zm-29.306-1.86c1.508 0 2.577.793 2.577 3.093 0 2.547-3.207 7.996-7.347 12.679l-.542.6c-4.372 4.777-9.662 8.765-12.425 8.765-1.316 0-2.988-.959-2.988-3.204 0-3.04 3.372-9.694 5.044-12.405l-.608.44c-.494.349-.939.628-1.174.628-.356 0-1.261-1.177-1.261-1.971 0-.165.055-.329.137-.438l.526-.592c1.395-1.552 5.02-5.406 7.095-5.406 1.289 0 2.193.904 2.193 1.808 0 1.999-7.456 14.184-7.456 16.485 0 .11.055.164.164.164.987 0 6.47-5.011 8.745-7.86l.445-.565c2.566-3.31 4.627-6.739 4.627-8.06 0-1.013-.63-1.068-.63-1.972 0-.848 1.069-2.19 2.878-2.19zm-97.27 7.456c-2.521.849-5.674 3.04-8.196 6.27-2.358 3.04-3.454 5.86-3.482 7.504 0 .958.384 1.533 1.124 1.533 1.234 0 4.496-1.616 7.814-5.778l.5-.637c2.655-3.446 3.776-5.915 3.776-6.948 0-.316-.108-.503-.306-.54l-.078-.008h-.192c-.548 0-.96-.273-.96-1.396zm-54.253.849c-1.864 0-5.455.767-9.704 5.202-2.413 2.492-4.77 6.655-4.77 8.298 0 .438.164.684.548.684 1.042 0 7.292-5.449 9.376-8.023 1.233-1.56 3.097-4.217 4.55-6.161zm132.936-18.684a118.996 118.996 0 0 0-18.285 17.224l2.306.06c2.138.066 4.637.172 7.508.35l4.097-8.583c1.637-3.412 3.164-6.573 4.374-9.051z"/>
</svg>
