<svg viewBox="0 0 186 47" xmlns="http://www.w3.org/2000/svg">
  <path class="dayton-ave" d="M26.699 9.47c0 9.105-12.693 17.208-22.462 17.208-3.598 0-3.19-.685-3.811-1.107-.248-.158-.337-.58-.337-1.02 0-.457.089-.931.142-1.142C1.046 20.49 10.07 7.853 12.109 5.11c.106-.14.55-.281 2.003-.387.975 0 1.312.106 1.312.51 0 .193-.124.422-.408.809-1.95 2.689-11.435 17.19-11.435 17.454 0 .158.266.228 1.011.228 8.793 0 18.632-8.525 18.632-13.429 0-3.304-3.085-6.117-8.651-6.117-4.113 0-7.605 1.846-8.67 2.672-.478.37-.673.615-.673.774 0 .087.089.14.213.14.337 0 .62-.14.762-.14.107 0 .16.035.16.07 0 .053-.107.14-.32.264-.513.28-.46.439-.797.65-1.17.703-1.667.826-1.95.844-.177 0-.266-.053-.372-.053h-.071c-.426 0-1.383-.334-1.383-1.441 0-2.813 5.407-6.486 13.136-6.486 7.783 0 12.09 3.392 12.09 7.997zm14.463 12.141c.036.225.109.742.109 1.209 0 .293-.018.57-.109.742-.488.915-3.255 3.746-5.678 3.746-1.88 0-2.694-1.433-2.694-2.883 0-.57.126-1.14.361-1.64-1.989 2.469-4.918 4.454-6.727 4.454-1.555 0-2.64-1.14-2.82-2.365a4.637 4.637 0 0 1-.073-.863c0-5.128 6.8-10.566 10.814-10.566 1.392 0 2.17.518 2.369 1.088.596-.88.886-.95 1.627-.95.76 0 1.374.277 1.374.898 0 .259-.09.57-.253.725-.271.276-3.29 4.99-3.888 8.097-.036.12-.054.293-.054.483 0 .432.127.95.579.95 1.446 0 3.996-3.056 4.286-3.298a.646.646 0 0 1 .397-.155.37.37 0 0 1 .38.328zm-5.593-6.275c-1.224 0-3.582.476-6.372 3.235-1.584 1.55-3.132 4.139-3.132 5.16 0 .273.108.427.36.427.684 0 4.788-3.39 6.156-4.99.81-.971 2.034-2.623 2.988-3.832zm9.268 17.104c-.38.389-2.3 4.668-4.272 4.915-.181.018-.344.035-.507.035-1.231 0-1.666-.724-1.666-1.644 0-.813.326-1.786.76-2.581 1.521-2.794 4.128-4.738 4.526-5.286.308-.442 1.068-1.928 2.715-4.969-1.864 1.998-4.054 4.102-6.082 4.314h-.127c-.452 0-.977-.176-1.43-.477-.543-.354-.651-1.096-.651-1.556 0-.088 0-.177.018-.247.217-2.617 1.14-3.112 3.53-7.39 1.701-2.564 2.371-4.668 3.059-4.668.344 0 1.376.513 1.376 1.343 0 1.114-4.743 8.399-4.743 9.548 0 .106.054.141.145.141.96 0 6.516-4.897 9.16-8.751.778-1.132 1.52-2.352 2.19-2.352.163 0 1.158.106 1.375.389.181.248.344.336.344.548 0 .142-.072.3-.235.619-.308.583-5.666 9.158-7.82 13.508 2.552-2.104 5.376-4.597 7.748-6.701a.638.638 0 0 1 .398-.16c.398 0 .561.708.561 1.68 0 .3-.054.548-.181.654-3.82 2.865-6.643 5.357-10.191 9.088zm8.471-8.613c.036-2.76 5-10.726 6.607-13.17-.018-.017-2.696.317-3.089.317h-.16c-.5 0-1.483-.176-1.483-.862 0-.264.447-.51.572-.862.178-.545 1.642-1.318 2.232-1.371.768-.053 1.535-.07 2.303-.106 1.679-.07-.071 0 1.607-.07.768-1.09 1.536-2.268 2.447-3.253.214-.281.25-.351.625-.351.286 0 .553-.106.84-.106.446 0 .446.176.731.176.214 0 .41.281.41.475 0 .281-1.535 2.55-1.803 2.989.233-.018 1.34-.106 1.768-.106.429 0 .84.018.982.07.429.176.554.651.947.933.178.14.303.246.303.51 0 .703-.893.984-1.428 1.037-1.643.158-2.929.334-4.572.422-1.285 1.952-6.553 10.813-6.803 12.572-.036.263-.071.492-.071.685 0 .686.303.862.874.862 1.715 0 4.822-3.517 5.268-3.517.5 0 .465 1.266.465 1.583 0 .668-.25 1.072-.804 1.547-1.196 1.02-3.446 3.077-5.5 3.077-.178 0-.34-.017-.5-.053-1.821-.334-2.768-1.16-2.768-3.428zM74.85 15.45c0 3.502-6.47 11.858-11.632 11.858-1.739 0-2.94-1.317-2.94-2.878 0-6.327 7.116-11.615 10.45-11.615 1.075 0 1.667.537 1.667.746v.104c.25-.035.466-.035.61-.035.842 0 1.845.537 1.845 1.82zm-3.425.175h-.129c-.368 0-.644-.18-.644-.92-1.693.56-3.81 2.002-5.502 4.13-1.583 2.003-2.319 3.86-2.337 4.943 0 .63.257 1.01.754 1.01.828 0 3.018-1.064 5.245-3.806 2.024-2.489 2.87-4.275 2.87-4.996 0-.234-.091-.36-.257-.36zm19.264 7.057c0 .605-.216 1.192-.845 1.566-1.312 1.192-3.38 3.06-5.52 3.06-1.437-.035-3.02-1.138-3.02-2.882 0-2.26 1.96-5.267 3.47-7.473.18-.267.9-1.316.953-1.672l-.036-.036c-.935.071-5.806 5.142-6.705 6.12-1.349 1.477-2.571 3.025-3.758 4.591-.251.32-.7.765-1.132.765-.306 0-1.438-.445-1.654-.623-.126-.07-.126-.178-.126-.284 0-.587.683-1.53 1.079-2.189 1.546-2.669 3.128-5.284 4.71-7.9.521-.853.953-1.743 1.582-2.526.611-.765 1.78-1.014 2.732-1.014.396 0 .432.391.432.694 0 .836-1.798 3.274-2.32 4.11 1.727-1.886 4.495-4.768 7.264-4.768.916 0 1.69.622 1.69 1.6 0 1.086-2.176 3.968-2.877 5.036-.593.907-2.607 3.86-2.607 5.089 0 .569.558.782 1.079.782 1.708 0 4.62-3.647 5.141-3.647.504 0 .468 1.281.468 1.601zM124.865 2.71c-.962 2.89-9.018 20.207-9.98 21.97-.91 1.655-1.676 3.03-3.28 3.03-.802 0-.98.228-1.248.228-.445 0-.57-.105-.57-.264 0-.158.107-.352.178-.546.071-.141 1.854-3.858 4.046-8.439a639.85 639.85 0 0 0-7.36-.247 71.449 71.449 0 0 0-5.526 7.928c-.392.74-.677 1.057-1.248 1.057-.623 0-1.586-.669-1.586-1.55 0-1.198 1.854-4.087 4.598-7.54-.998 0-1.764 0-2.156.035-.588.053-1.016.176-1.319.176-.32 0-.481-.158-.481-.757 0-1.075 1.283-2.062 3.51-2.062.322 0 1.088-.07 2.71-.105 4.777-5.55 11.086-11.593 15.47-13.777.321-.159.535-.247.731-.23.32 0 .517.177.766.441.606-1.163.553-1.216.874-1.216.196 0 1.907.864 1.907 1.621 0 .088 0 .159-.036.247zM121.1 4.623a77.618 77.618 0 0 0-12.037 11.079c1.696.035 3.844.105 6.46.264 2.004-4.122 4.134-8.454 5.577-11.343zm13.305 8.318c0 1.66-2.093 5.212-4.794 8.264-2.916 3.283-6.583 6.103-8.461 6.103-.86 0-1.95-.624-1.95-2.088 0-1.98 2.2-6.318 3.291-8.085-.465.34-.948.696-1.163.696-.232 0-.822-.767-.822-1.285 0-.107.035-.214.089-.285.322-.357 3.363-3.909 4.973-3.909.84 0 1.431.59 1.431 1.178 0 1.303-4.866 9.245-4.866 10.744 0 .072.036.107.108.107.644 0 4.222-3.266 5.706-5.122 1.807-2.266 3.31-4.711 3.31-5.622 0-.66-.412-.696-.412-1.285 0-.553.698-1.427 1.879-1.427.983 0 1.681.517 1.681 2.016zm10.77.962c0 1.587-1.558 2.96-3.171 2.96-.58 0-.653-.285-.653-.802 0-.178.036-.321.073-.464a8.666 8.666 0 0 0-1.487.696c-.598.32-3.081 1.926-3.081 2.586 0 .142.29.142.362.142.979 0 1.795-.588 2.72-.588.108 0 .253 0 .362.035.308.161.78.892.78 1.178 0 .303-.4.606-.635.802-.526.428-1.142.464-1.704.767-.743.41-3.825 2.086-3.825 2.889 0 1.248 1.45 1.391 2.411 1.391 2.646 0 5.166-2.461 6.834-3.692.108-.07.272-.178.417-.178.47 0 .47 1.088.47 1.409 0 .303 0 .66-.108.963-.109.285-.471.624-.743.838-1.74 1.391-4.405 3.103-7.341 3.103-2.157 0-4.985-.66-4.985-3.281 0-1.98 1.758-3.103 3.462-3.727-.997-.446-1.088-1.142-1.088-2.087 0-3.513 6.018-6.028 9.1-6.028.634 0 1.83.321 1.83 1.088zm15.206 8.78c0 .604-.216 1.191-.845 1.565-1.313 1.192-3.38 3.06-5.52 3.06-1.437-.035-3.02-1.138-3.02-2.882 0-2.26 1.96-5.267 3.47-7.473.18-.267.899-1.316.953-1.672l-.036-.036c-.935.071-5.807 5.142-6.706 6.12-1.348 1.477-2.57 3.025-3.757 4.591-.251.32-.7.765-1.132.765-.306 0-1.439-.445-1.654-.623-.126-.07-.126-.178-.126-.284 0-.587.683-1.53 1.079-2.189 1.546-2.669 3.128-5.284 4.71-7.9.52-.853.952-1.743 1.582-2.526.61-.765 1.78-1.014 2.732-1.014.396 0 .432.391.432.694 0 .836-1.798 3.274-2.32 4.11 1.726-1.886 4.495-4.768 7.263-4.768.917 0 1.69.622 1.69 1.6 0 1.086-2.175 3.968-2.876 5.036-.593.907-2.607 3.86-2.607 5.089 0 .569.557.782 1.079.782 1.708 0 4.62-3.647 5.141-3.647.504 0 .468 1.281.468 1.601zm13.2-.758c.035.233.105.77.105 1.253 0 .304-.018.59-.106.77-.475.948-3.167 3.883-5.508 3.883-1.056 0-2.57-.626-2.57-2.309 0-.734.106-1.95.757-3.15-1.724 2.202-4.61 5.566-6.846 5.566-1.372 0-2.2-1.217-2.2-2.344 0-2.577 2.482-6.586 3.291-8.036 1.707-3.043 2.359-4.35 3.309-4.35.616 0 1.197.806 1.197 1.164 0 .627-4.664 8.287-4.664 9.844 0 .179.053.268.194.268 1.25 0 7.55-7.391 8.148-8.573.686-1.378 1.425-2.362 1.725-2.559.264-.179 1.161-.519 1.953-.537.088 0 .194 0 .282.018.176.036.404.573.404.752 0 .035-.017.053-.017.053-1.514 2.971-2.34 4.188-2.763 5.065-.528 1.11-2.077 4.242-2.077 5.692 0 .465.159.751.563.751 1.479-.214 3.749-3.114 4.066-3.4.14-.108.264-.161.387-.161.193 0 .352.143.37.34zm11.51-8.022c0 1.587-1.56 2.96-3.173 2.96-.58 0-.653-.285-.653-.802 0-.178.037-.321.073-.464a8.666 8.666 0 0 0-1.486.696c-.599.32-3.082 1.926-3.082 2.586 0 .142.29.142.363.142.978 0 1.794-.588 2.719-.588.108 0 .253 0 .362.035.308.161.78.892.78 1.178 0 .303-.4.606-.635.802-.526.428-1.142.464-1.704.767-.743.41-3.824 2.086-3.824 2.889 0 1.248 1.45 1.391 2.41 1.391 2.647 0 5.166-2.461 6.834-3.692.109-.07.272-.178.417-.178.471 0 .471 1.088.471 1.409 0 .303 0 .66-.109.963-.108.285-.47.624-.743.838-1.74 1.391-4.404 3.103-7.34 3.103-2.158 0-4.986-.66-4.986-3.281 0-1.98 1.759-3.103 3.462-3.727-.997-.446-1.087-1.142-1.087-2.087 0-3.513 6.018-6.028 9.1-6.028.634 0 1.83.321 1.83 1.088z"/>
  <path class="church" d="M53.452 37.893h3.178c.37 0 .74.026 1.114.078.373.052.708.156 1.005.311.297.156.538.374.722.653.185.28.277.65.277 1.113 0 .48-.134.876-.403 1.192-.27.315-.624.54-1.066.676v.024c.281.04.536.118.765.233.229.116.425.264.59.443.164.18.29.39.379.629.088.24.132.495.132.766 0 .447-.096.82-.289 1.12-.192.299-.441.54-.746.724a3.284 3.284 0 0 1-1.03.395c-.38.08-.76.12-1.137.12h-3.49v-8.477zm1.878 3.389h1.36c.145 0 .287-.016.428-.048.14-.032.267-.084.379-.156a.812.812 0 0 0 .27-.287.857.857 0 0 0 .103-.431.779.779 0 0 0-.114-.437.794.794 0 0 0-.295-.27 1.41 1.41 0 0 0-.41-.137 2.47 2.47 0 0 0-.445-.042H55.33v1.808zm0 3.507h1.685c.145 0 .291-.015.44-.047.148-.032.283-.088.403-.168a.955.955 0 0 0 .295-.311.896.896 0 0 0 .114-.467c0-.2-.05-.361-.15-.485a.954.954 0 0 0-.38-.281 1.95 1.95 0 0 0-.493-.132 3.686 3.686 0 0 0-.493-.036h-1.42v1.927zm10.877-6.896h1.553l3.708 8.477h-2.12l-.733-1.796h-3.31l-.71 1.796h-2.071l3.683-8.477zm.722 2.467l-1.035 2.634h2.083l-1.048-2.634zm7.543-2.467h3.166c.441 0 .858.04 1.252.12.393.08.736.217 1.029.413.293.196.526.459.698.79.173.331.259.749.259 1.251 0 .495-.08.91-.24 1.246-.161.335-.382.602-.663.802-.28.2-.614.34-1 .425a5.887 5.887 0 0 1-1.251.125H76.35v3.305h-1.878v-8.477zm1.878 3.592h1.252c.168 0 .33-.016.487-.048.157-.032.297-.086.421-.161a.864.864 0 0 0 .301-.312.98.98 0 0 0 .115-.497c0-.215-.05-.389-.15-.52a1 1 0 0 0-.386-.306 1.656 1.656 0 0 0-.524-.137 5.379 5.379 0 0 0-.553-.03h-.963v2.011zm9.504-1.94h-2.431v-1.652h6.74v1.652h-2.43v6.825h-1.879v-6.825zm7.386-1.652h1.878v8.477H93.24v-8.477zm9.95 2.072a1.337 1.337 0 0 0-.62-.426 2.233 2.233 0 0 0-.74-.137 1.95 1.95 0 0 0-.421.048 1.62 1.62 0 0 0-.41.15.89.89 0 0 0-.313.269.68.68 0 0 0-.12.407c0 .255.096.45.289.586.193.136.435.252.728.348.293.095.608.191.945.287.337.096.652.231.945.407.293.176.536.411.728.706.193.296.29.69.29 1.186 0 .47-.089.882-.265 1.233a2.505 2.505 0 0 1-.717.874c-.3.231-.65.403-1.047.515a4.625 4.625 0 0 1-1.258.167 4.586 4.586 0 0 1-1.54-.251 3.865 3.865 0 0 1-1.325-.814l1.336-1.46c.193.255.436.452.729.592a2.088 2.088 0 0 0 1.372.155c.156-.035.297-.09.421-.161a.907.907 0 0 0 .301-.276.684.684 0 0 0 .114-.395.715.715 0 0 0-.294-.604 2.724 2.724 0 0 0-.74-.377 23.03 23.03 0 0 0-.964-.312 4.337 4.337 0 0 1-.963-.419 2.316 2.316 0 0 1-.74-.694c-.197-.287-.295-.667-.295-1.138 0-.455.09-.854.27-1.197a2.6 2.6 0 0 1 .723-.862c.301-.231.648-.405 1.041-.52a4.284 4.284 0 0 1 1.216-.174c.482 0 .947.068 1.396.203.45.136.855.363 1.216.683l-1.288 1.4zm6.495-.42h-2.431v-1.652h6.74v1.652h-2.43v6.825h-1.879v-6.825zm18.697.551a1.84 1.84 0 0 0-.68-.515c-.27-.12-.58-.18-.933-.18a2.347 2.347 0 0 0-1.764.772c-.22.244-.393.534-.518.87a3.108 3.108 0 0 0-.186 1.089c0 .399.062.764.186 1.095.125.331.295.619.512.862.217.244.472.433.764.569.293.135.608.203.945.203.386 0 .727-.08 1.024-.24.297-.159.541-.382.734-.67l1.565 1.162a3.255 3.255 0 0 1-1.372 1.113c-.554.24-1.124.36-1.71.36-.666 0-1.28-.104-1.842-.312a4.22 4.22 0 0 1-1.456-.892 4.043 4.043 0 0 1-.957-1.407c-.229-.55-.343-1.165-.343-1.843 0-.679.114-1.293.343-1.844.229-.551.548-1.02.957-1.407a4.22 4.22 0 0 1 1.456-.892 5.276 5.276 0 0 1 1.842-.311c.24 0 .492.022.753.066.26.044.517.113.77.21.253.095.496.223.728.382.233.16.442.355.626.587l-1.444 1.173zm4.822-2.203h1.877v3.161h3.648v-3.16h1.878v8.476h-1.878v-3.664h-3.648v3.664h-1.877v-8.477zm18.472 5.208c0 .503-.076.966-.228 1.39-.153.422-.38.79-.68 1.1-.302.312-.677.555-1.126.731-.45.176-.967.263-1.553.263-.594 0-1.115-.087-1.565-.263a3.117 3.117 0 0 1-1.125-.73 3.053 3.053 0 0 1-.68-1.102 4.068 4.068 0 0 1-.23-1.389v-5.208h1.879v5.137c0 .263.042.506.126.73.084.223.203.417.355.58.153.164.335.292.548.384.213.091.443.137.692.137a1.628 1.628 0 0 0 1.228-.52c.152-.164.27-.358.355-.581.084-.224.126-.467.126-.73v-5.137h1.878v5.208zm3.883-5.208h3.299c.433 0 .844.042 1.233.126.39.084.73.223 1.024.419.293.196.525.459.698.79.172.331.259.744.259 1.24 0 .598-.157 1.107-.47 1.526-.313.419-.77.684-1.372.796l2.167 3.58h-2.251l-1.782-3.388h-.927v3.388h-1.878v-8.477zm1.878 3.508h1.108c.168 0 .347-.006.535-.018.189-.012.36-.048.512-.107a.885.885 0 0 0 .38-.282c.1-.128.15-.307.15-.539 0-.215-.045-.387-.133-.514a.881.881 0 0 0-.337-.294 1.501 1.501 0 0 0-.47-.137 3.85 3.85 0 0 0-.517-.036h-1.228V41.4zm13.646-1.305a1.84 1.84 0 0 0-.68-.515c-.27-.12-.58-.18-.933-.18a2.347 2.347 0 0 0-1.764.772c-.22.244-.393.534-.517.87a3.108 3.108 0 0 0-.187 1.089c0 .399.062.764.187 1.095.124.331.294.619.511.862.217.244.472.433.765.569.292.135.607.203.944.203.386 0 .727-.08 1.024-.24.297-.159.541-.382.734-.67l1.565 1.162a3.255 3.255 0 0 1-1.372 1.113c-.554.24-1.124.36-1.71.36-.666 0-1.28-.104-1.842-.312a4.22 4.22 0 0 1-1.456-.892 4.043 4.043 0 0 1-.957-1.407c-.229-.55-.343-1.165-.343-1.843 0-.679.114-1.293.343-1.844.229-.551.548-1.02.957-1.407a4.22 4.22 0 0 1 1.456-.892 5.276 5.276 0 0 1 1.842-.311c.241 0 .492.022.753.066.26.044.517.113.77.21.253.095.496.223.728.382.233.16.442.355.626.587l-1.444 1.173zm4.822-2.203h1.878v3.161h3.647v-3.16h1.878v8.476h-1.878v-3.664h-3.647v3.664h-1.878v-8.477z"/>
</svg>
